<?xml version="1.0" encoding="utf-8"?>

<!DOCTYPE svg PUBLIC "-//W3C//DTD SVG 1.1//EN" "http://www.w3.org/Graphics/SVG/1.1/DTD/svg11.dtd">
<svg version="1.1" id="Layer_1" xmlns="http://www.w3.org/2000/svg" xmlns:xlink="http://www.w3.org/1999/xlink" x="0px" y="0px"
	 viewBox="0 0 1565.358 1704.441" enable-background="new 0 0 1565.358 1704.441" xml:space="preserve">
<path d="M1462.833,340.623c-9.053,0-73.377,10.445-94.603,19.168l-0.375-0.022c-11.33,4.635-23.125,11.421-35.127,16.1
	c-6.957,2.749-2.727-2.6-50.033,20.391c-0.555,0.269-1.12,0.556-1.484,1.111c-6.615,2.269-35.614,22.217-37.733,23.66
	c-70.562,48.062-85.989,52.194-109.028,67.635c0.103,0.551,0.173,0.923,0.288,1.562c-21.288,18.594-49.577,31.473-71.125,49.98
	c-3.367,2.701-6.328,5.944-9.896,8.374c-9.116,6.369-19.85,10.201-29.127,16.39c-21.959,14.271-14.484,12.085-41.058,23.896
	c0,0,18.789-19.033,18.788-19.031c99.254-99.133,113.85-124.953,171.956-229.728c41.461-74.758,158.849-245.833,84.304-283.061
	c-19.495-9.752-44.054-3.762-64.389,3.972l-0.278-0.938c-101.583,39.699-138.536,97.887-176.709,150.224
	c-59.136,81.051-81.146,119.442-98.474,139.442c-0.867,1.001-67.584,81.017-111.232,118.686
	c-27.97,24.139-25.414,26.063-29.839,30.363c-43.643,31.024-99.121,113.347-115.629,143.496
	c-7.794-6.757-16.379-15.581-25.964-19.533c-0.568-2.268-15.663-6.126-16.56-7.127c2.367-3.235,4.14-6.844,6.321-10.073
	c15.431-17.691,15.025-16.211,17.871-23.003c1.34-3.199,2.629-6.211,5.068-7.87c3.807-2.591,2.632-5.194-1.301-7.187
	c6.761-0.697,4.494-6.876,1.472-7.294c0.561-1.567-0.07-3.373-1.65-4.037c0.436-3.322-2.758-6.083-5.034-5.301
	c-19.71-26.451-41.297-53.889-72.155-60.722c0.064-2.818,0.799-1.343-9.002-7.211c-10.144-6.071-20.806-12.231-31.515-10.395
	c-1.612-3.028-3.752-3.219-5.394-1.854c-1.401,1.265-3.228-0.614-4.472,4.092c-0.266,1.003-3.172,12.491-3.144,13.794l1.809,0.095
	c1.389-3.844,3.273-7.323,5.897-10.625c0.675-0.457,1.673-0.636,2.446-0.974c6.056,3.222,11.013,3.027,22.797,7.417
	c5.937,2.21,3.518,1.161,16.196,5.903c-0.576,1.464-1.866,1.99,0.627,5.095c20.579-0.166,61.765,43.533,74.044,58.782
	c0.03,1.192,0.226,2.635,1.369,3.468c0.255,0.311,0.941,0.658,0.697,0.969c-6.294-0.015-6.702,6.736-1.871,8.57
	c-10.794,4.583-16.838,31.64-33.605,47.715c-1,0.171-4.354,0.657-6.351,0.704l0.552,0.298c-6.343,1.066-12.833,3.877-18.89,8.17
	c8.204-13.833,8.651-30.43,5.729-46.384c0,0-0.045,0-0.045-0.001c-1.687-2.844-2.166-7.2-3.435-10.334
	c-1.442-3.561-3.121-7.026-5.033-10.358c-3.791-6.603-8.509-12.724-14.185-17.817c-11.553-10.368-28.027-16.37-43.378-11.797
	c-10.542,3.14-16.082,10.281-22.949,18.085c-5.157-5.497-10.589-9.472-18.707-9.713c-44.668-1.323-77.729,69.368-45.279,83.663
	c-5.187,3.138-8.915,8.359-11.455,13.765c-4.102,8.729-5.235,18.795-2.467,28.078c3.84,12.877,12.907,23.44,24.213,30.471
	c6.266,3.897,13.094,6.71,20.194,8.672c19.775,5.463,41.583,2.893,58.551-9.235c-4.072,7.926-5.95,16.736-5.43,25.59
	c-15.854,20.353-39.608,28.42-42.668,39.789c-2.405-4.857-10.005-2.321-8.095,2.994l-0.406,0.051
	c-1.176-1.182-2.744-1.697-4.438-1.456c-18.461-11.001-64.981-43.967-68.593-65.284c-4.001-1.371-2.117-1.052-5.032,0.282
	c-8.96-16.928-18.59-36.813-18.59-36.813c0.18-0.796,0.27-1.688,0.583-2.431c2.728-2.982,5.954-5.344,9.488-7.31
	c0.522-1.074-0.181-2.013-0.965-1.813c-11.362,5.163-16.077,4.647-15.413,9.4c-1.593,2.098-1.215,4.586,2.23,5.63
	c-0.568,13.795,12.398,26.217,20.811,37.642c0.78,0.343,1.381,0.184,2.228,0.089c10.964,28.106,37.807,45.77,70.085,62.851
	c0.274,1.379-0.001,1.932,1.139,2.871c1.28,1.055,3.017,2.488,4.843,1.49c1.632,1.533,1.702,1.789,4.267,1.112
	c1.063,3.078,7.561,4.085,7.053-2.629c3.292,5.042,6.56,3.123,7.334,0.256c1.737-3.075,5.047-4.75,8.021-6.506
	c5.748-3.266,5.985-5.469,18.605-19.507c2.274-2.535,6.569-5.372,10.126-8.758c0.082,0.054,0.168,0.112,0.239,0.161
	c1.225,0.838,2.897,6.494,3.775,8c1.871,3.21,3.948,6.299,6.213,9.245c5.968,7.764,13.665,15.387,21.824,20.873l0.097,0.36
	c-22.568,15.903-100.519,85.335-125.421,133.059c-0.916,1.758-1.294,2.485-3.954,4.871c-12.208,10.953-28.094,40.926-37.942,52.296
	c-4.74,5.469-57.008,73.286-82.36,99.945c-126.493,133.045-216.355,165.227-253.038,317.8l0.92-0.245
	c-0.004,1-22,83.031,43.481,83.031c31.937,0,62.804-21.33,85.223-34.04c68.412-40.058,19.298-12.08,187.735-139.773
	c110.787-83.508,147.511-163.368,176.955-190.947c-0.99,2.843-1.351,5.835-2.178,8.694c-3.813,13.756-11.784,25.974-17.41,39.003
	c-4.21,10.108-6.583,21.167-12.317,30.575c-23.637,36.076-26.896,57.463-44.486,84.863c-4.654,0.761-6.343,13.381-27.385,61.37
	c-25.281,56.746-54.255,106.031-57.851,145.907c-0.325,3.597-0.144,5.925-7.609,28.332c-12.228,36.631-10.194,106.592-9.595,111.959
	c2.996,27.205,22.661,51.936,40.302,47.912c10.787-2.223,37.551-26.13,43.194-29.862c6.617-4.866,13.934-9.409,18.859-16.224
	c0,0,13.981-18.269,19.481-23.376c34.123-31.685,45.068-50.137,51.98-57.076c25.509-31.028,31.119-34.638,47.348-71.593
	c12.42-28.277,18.637-40.132,41.42-58.995c13.194-10.401,10.214-11.745,15.606-20.325c10.447,0.45,18.862-13.036,35.279-32.132
	l0.068,0.014c54.846-62.862,38.379-56.186,68.766-97.917c26.03-27.623,80.731-114.434,80.035-128.016
	c1.348-7.466,4.038-14.681,6.64-21.657c9.731-26.103,4.857-18.85,11.224-51.016c3.993-20.182,6.557-34.239,0.861-56.118
	c-5.772-21.83-17.882-40.286-30.356-51.234c-34.174-30-35.506-33.903-96.048-72.463c1.095,0.479,24.47,12.171,29.544,12.483
	c1.353,0.934,2.145,2.31,3.333,3.736c0.64,0.681,0.933,0.988,2.043,2.514c0.079,0.077,0.522,0.691,0.587,0.78l-0.026-0.235
	c4.03,3.92,8.096,7.56,13.084,9.563c5.382,2.305,10.988,4.433,16.282,7.028c0.346,0.195,8.361,4.485,8.748,4.396
	c0,0,7.993,4.324,19.075,15.566c5.382,5.444,12.268,17.988,23.063,26.525l0.299,0.228c0,0,0.128,0.099,0.137,0.099
	c11.33,8.55,21.034,9.915,32.297,19.163l-0.014,0.031c0.217,0.122,0.141,0.068,0.413,0.295l0.021-0.044
	c0.044,0.027,0.095,0.059,0.137,0.079c0.43,0.484,0.923,0.927,1.434,1.376c0.136,0.116,0.428,0.372,0.564,0.476
	c1.001,0.851,10.845,9.123,12.096,9.775c0.075,0.091,0.177,0.215,0.278,0.337l-0.063,0.029c0.225,0.187,0.262,0.209,0.398,0.368
	l0.027-0.012c31.533,26.28,23.642,15.31,34.823,27.141c14.322,15.446,29.893,29.7,46.115,43.121
	c8.087,6.691,16.28,13.355,24.769,19.533c3.639,2.648,7.848,3.939,11.456,6.809c2.546,2.026,4.617,4.574,7.155,6.593
	c0,0-0.258,0.237-0.258,0.237c1.496,1.359,7.988,8.192,8.815,8.97l0.122-0.01c9.867,8.993,8.595,3.773,19.923,15.607
	c7.569,7.907,13.796,16.844,22.065,24.224c6.642,5.927,13.882,11.187,21.58,15.658c3.209,1.864,6.519,3.323,9.402,5.635
	c1.62,1.299,3.926,4.518,6.045,4.932l-0.324,0.259c0.316,0.166,0.919,0.484,1.234,0.656c43.341,42.53,3.374,3.06,31.714,32.963
	l-0.283,0.559l0.826,0.081c2.003,4.535,32.615,30.886,37.336,34.354l-0.06,0.035c0.211,0.112,0.331,0.167,0.499,0.285
	c0.289,0.237,0.474,0.496,0.861,0.582c10.389,7.453,10.326,3.515,17.192,11.474c0.935,1,1.626,1.945,2.524,3.195l0.005,0.271
	c1.914,2.526,12.052,18.009,12.654,19.009l0.32,0.101c0.742,1.101,0.51,0.757,0.742,1.144c0.151,0.197,0.213,0.272,0.343,0.446
	c14.332,18.632,18.014,14.493,26.234,18.612l0.003,0.061c10.031,5.414,12.837,9.851,20.999,17.103l0.026,0.143
	c7.214,7.346,16.543,15.421,26.216,18.975c1.103,0.48,2.423,0.568,3.157,1.514c0.268,0.694,0.727,1.675,1.047,2.377
	c4.351,9.55,12.941,18.264,20.403,25.549c3.7,3.612,7.656,7.108,12.107,9.774c1.975,1.183,4.063,2.272,6.282,2.921
	c0.718,0.21,5.848,0.425,5.987,0.607c3.095,4.046,7.572,6.783,11.176,8.742c0.158,0.062,0.395,0.196,0.567,0.288l-0.011-0.057
	c2.088,0.852,2.516,1.229,3.734,1.543c17.702,44.895,47.623,58.578,50.99,57.841c5.152-2.599-3.766-10.775-7.169-16.103
	c-5.886-9.22-14.608-16.001-23.884-21.633c-4.302-5.129-6.116-11.747-9.222-17.766l0.466-0.246c4.116,0.46,8.149-0.418,12.205-1.329
	c8.053,4.924,23.744,12.103,23.744,12.103c0.834-1.055,0.479-1.666-0.504-2.616c-3.929-7.191-8.709-13.905-13.813-20.311
	l-0.075,0.052c0.592-4.577,0.496-8.603-0.308-12.274l0.371-0.374l0.053,0.061c6.807,2.013,13.205,3.129,18.712,6.495
	c14.81,18.498,25.637,20.316,29.294,23.135c13.06,8.035,12.726,1.687,11.895,0.479c-19.623-32.292-62.74-40.163-63.763-40.533
	c-0.026-0.048-0.899-1.442-1.52-2.599l-0.113-0.019c-0.818-1.335-0.814-1.338-1.321-2.147l-0.28,0.057
	c-2.323-4.856-8.341-8.213-9.334-9.214c-1.559-8.351-5.519-11.983-5.519-11.983l0.21-0.096l-0.228-0.174l0.009-0.276l-0.225,0.103
	c-2.104-1.666-3.362-4.095-5.699-5.573c-8.955-8.569-20.079-15.041-31.415-19.908c-1.974-0.848-4.186-1.79-5.627-3.451
	c-1.702-1.963-2.604-4.599-4.265-6.67c-4.902-6.111-9.411-11.438-16.038-15.595c-3.975-2.493-7.727-5.341-11.204-8.491
	c-4.727-4.282-8.948-9.125-12.536-14.399c-1.953-2.871-3.226-7.686-5.808-9.508c-3.992-2.811-7.256-6.715-11.632-9.401
	c-8.572-5.261-18.492-7.711-26.851-13.284c-4.021-2.671-7.68-5.891-10.826-9.554c-1.655-1.926-2.915-4.116-4.489-6.081
	c-0.961-1.2-3.306-2.694-3.629-4.159c-0.084-0.092-10.943-10.107-11.544-10.437c-0.297-0.517-18.856-15.394-19.923-15.731
	c-1.331-1.493-21.291-14.495-21.545-14.528c-1.046-1.128-6.989-5.287-7.62-5.441c-4.942-3.919-9.955-7.734-14.953-11.566
	c-7.866-6.031-13.808-14.182-20.085-21.747c-4.426-5.335-9.145-10.551-14.752-14.677c-9.546-7.024-20.356-12.44-29.388-20.142
	c-3.976-3.391-6.704-7.66-10.456-11.181c-4.536-4.257-9.581-7.912-14.549-11.64c-4.105-3.081-10.768-6.928-12.797-11.965
	c-0.45-1.117-1.205-2.646-2.571-3.323c-1.347-3.164-15.034-14.978-16.034-15.942c-0.09-0.083-0.036-0.029-0.419-0.378
	c0.27-1.067-8.719-7.377-9.537-8.055c-4.447-3.691-8.895-7.383-13.342-11.074c-13.611-11.343-27.223-22.276-41.071-33.254
	c-3.707-7.138-23.528-24.396-24.529-24.702c-2.064-3.09-5.784-5.539-8.603-7.871c-3.929-3.25-6.9-7.382-10.159-11.407
	c-8.698-10.742-16.801-23.104-28.79-30.438c-6.385-3.906-13.124-8.66-20.033-11.566c-1.397-2.188-4.817-3.696-6.721-5.568
	c-2.737-2.69-5.363-5.485-7.844-8.413c-5.289-6.24-12.906-14.84-15.649-22.613c-0.269-0.723-0.977-2.67-1.691-2.971
	c-1.023-3.666-11.206-12.587-13.972-13.228c-0.589-0.566-1.204-0.911-1.874-1.054c-0.6-0.585-1.363-1.077-2.397-1.544
	c-3.058-7.136-13.313-23.077-14.032-24.083c-0.977-1.272-1.175-1.778-2.152-3.09c123.974,148.745,162.337,105.112,216.61,91.719
	c20.45-5.046,30.916-15.479,47.62-20.948c0.687-0.099,1.203-0.617,1.348-1.336c31.895-14.06,85.63-64.844,92.416-72.629
	c51.126-58.636,49.882-34.708,109.714-105.346c14.034-16.573,28.728-28.178,26.536-39.061c1.43-1.144,2.987-2.174,4.494-3.172
	c13.818-9.147,11.433-16.674,28.215-35.593c32.019-34.577,38.75-12.433,117.568-102.586l0.379-0.073
	c28.434-30.43,23.412-34.717,53.712-64.065c0.135-0.29,0.237-0.642,0.348-0.997c6.054-4.606,11.854-19.063,18.118-29.082
	c4.582-7.327,18.557-30.248,18.826-38.952C1519.01,353.918,1488.363,339.609,1462.833,340.623z"/>
</svg>
