<?xml version="1.0" encoding="utf-8"?>

<!DOCTYPE svg PUBLIC "-//W3C//DTD SVG 1.1//EN" "http://www.w3.org/Graphics/SVG/1.1/DTD/svg11.dtd">
<svg version="1.1" id="Layer_1" xmlns="http://www.w3.org/2000/svg" xmlns:xlink="http://www.w3.org/1999/xlink" x="0px" y="0px"
	 viewBox="0 0 1099.659 1631.922" enable-background="new 0 0 1099.659 1631.922" xml:space="preserve">
<g>
	<path d="M599.785,1532.488c-5.082,7.574,0.033,25.221-12.391,25.521c-3.315,0.08-2.572,3.604-2.568,4.735
		c0.018,4.634-1.646,9.164-0.491,13.903c2.613,10.718-9.305,9.454-3.298,27.873c2.17,6.652-2.477,16.953-7.215,8.138
		c-0.49-0.912,0.686-3.067-2.121-2.341c-8.25,2.132-4.873-20.943-4.624-30.699c0.248-9.731-2.164-19.07-2.458-28.712
		c-1.328-43.618-4.371-12.207-4.321-67.539c0.008-8.617-7.491-13.851-6.492-22.885c3.795-34.324-5.176-61.181-4.551-76.357
		c0.411-9.983-2.759-20.001-4.753-29.944c-3.521-17.557,0.519-5.061-4.925-42.011c-8.02-54.43-3.528-59.709-12.089-75.337
		c-8.818-16.097-6.413-23.895-21.029-41.882c-9.03-11.112-9.571-18.04-19.482-21.329c-2.957-0.981-4.569-4.034-5.408-7.044
		c-2.064-7.402-7.049-13.719-7.885-21.582c-0.693-6.518-3.399,4.838-12.767,1.931c-1.398-0.434-3.294-0.065-4.72,0.526
		c-7.368,3.051-14.427-1.114-21.703-0.988c-4.204,0.072-8.148-8.649-11.208-7.933c-7.074,1.654-13.626-2.97-20.7-1.467
		c-3.09,0.656-4.634-0.315-3.561-4.228c0.835-3.047-2.585-5.639-1.888-9.472c0.582-3.202,0.189-6.716,1.447-9.891
		c1.222-3.084,0.428-4.936-2.39-6.806c-4.077-2.705-7.131-6.613-11.645-9.092c-2.871-1.577-4.891,0.943-7.733-1.427
		c2.569,7.358,12.099,27.787-4.236,44.608c-12.687,13.064-39.355,18.84-22.424,9.463c22.344-12.374,30.911-43.96,6.646-57.449
		c-10.32-5.736-14.129-6.568-21.1,3.796c-9.43,14.019-36.914-15.871-47.312-27.409c-5.008-5.557-15.306,3.775-22.907-0.079
		c14.15,45.495,62.22,54.208,35.735,88.007c-1.621,2.068-4.807,2.918-6.818,5.06c-0.655,0.698-2.254,0.768-3.147-0.05
		c-1.935-1.77,0.932-4.746,3.206-8.943c5.035-9.291,4.751-18.484-2.813-27.003c-7.232-8.144-13.156,3.479-17.006,0.079
		c-2.406-2.124-6.515-3.182-6.232-7.839c0.646-10.622-13.021-20.849-14.125-24.042c-2.609-7.55-6.516-14.649-8.055-22.563
		c-1.017-5.225-8.295-8.374-12.388-4.974c-10.658,8.851-18.573,4.073-19.573,4.437c-17.592,6.414-17.16-4.112-22.492,3.118
		c-4.941,6.701-10.145-2.499-17.02,7.631c-3.18,4.686-4.156,5.063-8.023,1.386c-6.866-6.528-9.393,6.677-13.777,8.657
		c-1.374,0.621,3.704,5.232,2.79,7.666c-0.623,1.66-2.944-0.312-3.637,0.127c-6.264,3.973-8.458-1.737-11.245-4.868
		c-4.548-5.112-4.903-13.804-1.072-19.373c2.685-3.903,0.695-8.766,2.682-13.117c1.077-2.359,7.252-7.119,5.968-9.968
		c-0.75-1.663-1.381-2.774-3.55-1.741c-17.854,8.5-9.152,20.68-14.245,30.557c-2.165,4.199-7.93,2.767-7.322-1.8
		c1.419-10.652-0.83-22.482,9.601-30.317c2.605-1.956,0.24-5.132,1.656-7.811c1.377-2.604,0.359-3.149,16.145-4.11
		c3.42-0.208,4.323-3.766,5.696-5.96c9.399-15.022,78.173-4.13,81.464-7.829c5.38-6.043,12.702-6.275,19.906-6.334
		c15.971-0.132,8.627-6.67,52.553-4.935c4.994,0.197,17.771,3.027,22.786,1.812c7.963-1.928,3.6-4.299,2.334-6.18
		c-22.188-32.979-13.988-24.244-36.192-65.579c-34.621-64.452-51.784-76.492-58.299-101.682c-2.63-10.391-5.882-21.07-13.83-29.484
		c-3.723-3.941-5.642-9.526-8.875-14.008c-16.101-22.323-13.518-7.03-36.862-37.471c-18.799-24.515-10.56-14.718-15.408-30.02
		c-0.319-1.006-6.848-26.279-10.519-31.415c-9.019-12.617-10.915-24.21-13.284-32.169c-2.401-8.068-22.175-72.852-27.782-79.368
		c-7.243-8.418-3.753-22.564-26.815-38.381c-10.738-7.365-46.017-18.451-62.009-36.194c-2.331-2.586-1.125-3.344,0.954-3.864
		c20.817-5.207,42.456-6.039,63.809-6.91c4.283-0.175,7.201-2.831,10.223-4.96c13.65-9.618,28.112-17.846,43.572-23.95
		c70.213-27.719,153.578,30.628,177.407,57.296c34.521,38.635,39.179,64.374,61.222,71.45c14.025,4.5,87.201-64.173,91.9-79.636
		c8.227-27.075-1.345-14.396,29.77-54.528c6.465-8.339,16.095-13.225,15.152-28.979c-2.036-33.999,2.568-35.105-1.655-59.158
		c-6.651-37.885-6.763-72.154-6.763-72.154c-0.679-2.697-0.245-3.699,27.011-16.169c13.561-6.204,18.916,35.299,19.208,51.445
		c0.043,2.388-0.658,5.713,1.735,6.374c2.827,0.78,3.255-2.93,4.417-4.836c0.395-0.648,10.573-80.279,10.671-81.032
		c1.294-10.007-0.031-22.488,3.15-31.98c4.399-13.126,3.203-30.168,5.211-44.007c6.753-46.525,14.747-63.88,13.351-79.303
		c-0.258-2.845,1.394-4.683,4.02-5.24c23.091-4.901,28.58-14.853,34.441-5.173c17.645,29.14,15.803,121.842,14.742,127.88
		c-3.508,19.954,13.688,13.443,23.141-59.791c2.394-18.547,1.467-37.262,4.017-55.834c3.358-24.455,10.05-50.653,8.991-75.37
		c-0.38-8.859,0.403-9.708,8.933-11.203c12.208-2.139,24.19-5.524,36.633-6.407c28.17-1.996,23.325,51.323,25.565,67.705
		c6.865,50.219-5.041,79.624-7.059,98.129c-0.406,3.724-5.592,11.179-1.533,12.715c2.031,0.769,3.725-0.472,5.402-2.094
		c2.86-2.766,2.339-6.398,3.37-9.621c2.135-6.67,4.481-13.512,7.577-19.535c9.197-17.893,13.869-37.502,22.669-55.556
		c17.383-35.661,6.618-35.559,19.165-53.39c1.073-1.526,2.529-2.615,4.368-2.752c13.28-0.991,26.491-3.065,39.886-2.245
		c19.867,1.215,24.485,20.99,21.95,26.482c-2.3,49.142-3.868,89.633-28.263,134.305c-14.167,25.943-21.682,31.353-11.424,27.979
		c9.915-3.261,52.312-70.763,50.382-71.855c5.845-7.387,23.777-40.051,50.963-37.536c18.693,1.729,34.954-2.06,39.052,11.543
		c18.4,61.078-35.163,119.398-84.034,160.832c-15.028,12.741-16.6,14.789-15.208,16.977c1.173,1.843,2.845,0.149,4.261-0.306
		c5.751-1.847,10.72-5.081,15.395-8.808c17.741-14.145,85.748-55.27,103.715-70.794c2.233-1.929,4.612-3.456,7.111-3.317
		c12.248,0.682,24.565,1.505,35.993,6.566c16.303,7.221,7.886,33.66-2.114,49.229c-21.612,33.646-33.074,41.803-44.316,52.681
		c-8.307,8.039-9.931,9.661-8.039,12.798c1.325,2.197,2.706,0.959,4.093,0.345c17.375-7.691,100.267-16.374,83.567,15.08
		c-9.854,18.561-45.464,46.657-54.49,57.636c-0.638,0.776-2.267,0.929-1.844,2.354c0.446,1.504,1.922,0.832,2.911,0.822
		c12.439-0.13,24.983,3.591,35.815,9.299c10.85,5.719,11.388,8.522,4.646,18.398c-6.955,10.188-16.468,18.041-24.242,27.462
		c-9.107,11.035-13.998,14.22-7.11,15.857c10.862,2.581,31.959,11.445,25.636,22.784c-6.56,11.763-14.3,22.52-24.569,31.342
		c-3.705,3.183-5.234,8.007-8.622,11.479c-1.239,1.27-0.866,2.912,1.067,3.918c5.73,2.984,10.109,7.625,14.701,12.042
		c7.519,7.232,6.449,9.919,3.919,19.551c-2.777,10.573-10.992,16.867-19.047,23.315c-16.492,13.201-25.036,13.046-18.571,23.131
		c4.93,7.691,7.429,14.894-0.738,20.191c-9.154,5.936-17.028,13.396-24.947,20.813c-10.768,10.086,23.661,14.82,11.619,41.526
		c-1.374,3.046-4.796,3.999-7.321,4.982c-8.274,3.222-15.894,8.361-25.048,9.179c-13.247,1.185-11.693,7.158-19.509,12.917
		c-8.051,5.932,11.221,11.58,13.454,29.494c1.292,10.366-2.484,20.39-14.445,23.567c-10.795,2.868-21.286,7.165-31.548,11.66
		c-7.286,3.192-8.542,13.728-2.146,18.477c4.096,3.042,18.21,1.237,16.863,7.13c-0.372,1.626-14.534,25.586-19.439,25.761
		c-1.166,0.042-2.24-0.569-3.311-1.032c-4.244-1.837-12.772-1.592-15.79,2.701c-3.023,4.299-5.385,8.779-10.387,11.836
		c-6.456,3.945-5.606,11.839,0.64,16.55c4.686,3.534,7.901,8.953,13.99,10.746c3.021,0.889-4.099,10.255-10.449,7.639
		c-5.885-2.424-11.657-5.119-17.527-7.58c-17.296-7.252-29.15,11.004-23.752,13.522c6.518,3.042,21.412,24.905,8.134,21.847
		c-12.12-2.792-17.423-7.557-33.403-16.152c-6.58-3.54-18.437,2.793-15.089,10.055c1.766,3.83,2.659,7.761,2.498,12.038
		c-0.469,12.386-10.768,12.247-20.115,11.19c-17.78-2.012-25.273-14.203-35.462-4.486c-3.466,3.306-7.572,6.636-12.036,8.452
		c-9.24,3.758-13.32,11.174-21.545,16.677c-20.686,13.842-39.93,3.5-53.928-1.386c-11.187-3.905-8.891,10.973-32.133,10.201
		c-7.41-0.246-12.797-5.357-18.599-9.092c-2.888-1.859-6.025-3.502-8.541-6.095c-3.348-3.45-4.992,2.039-3.181,6.786
		c4.75,12.448,3.587,25.764,5.797,38.574c7.899,45.79,7.182,25.355,4.296,50.525c-0.046,0.398,4.25,84.64,5.888,103.189
		c3.76,42.564,4.218,55.915,3.212,69.947c-1.401,19.543,3.995,37.977,5.271,51.216c21.216,233.381,7.216,226.614,3.564,276.993
		c-0.554,7.639-7.285,6.801-10.107,20.444c-0.275,1.328-0.343,2.541-1.938,3.234C601.211,1581.263,601.105,1556.87,599.785,1532.488
		z M347.155,1069.328c5.109,1.071,9.519-1.528,14.194-2.503c3.297-0.687,7.528-0.671,9.563-2.729
		c2.917-2.95-1.151-6.395-2.081-9.553c-1.804-6.131-5.844-11.279-9.307-16.612c-2.957-4.554-12.382-4.426-32.067-4.4
		c-3.87,0.005-7.812-2.153-11.459-0.725c-3.744,1.465-7.573,1.408-10.865,0.458c-5.432-1.568-20.725,1.272-15.851,8.171
		C300.613,1057.474,301.145,1062.783,347.155,1069.328z"/>
</g>
</svg>
