<?xml version="1.0" encoding="utf-8"?>
<!-- Generator: Adobe Illustrator 16.0.0, SVG Export Plug-In . SVG Version: 6.00 Build 0)  -->
<!DOCTYPE svg PUBLIC "-//W3C//DTD SVG 1.1//EN" "http://www.w3.org/Graphics/SVG/1.1/DTD/svg11.dtd">
<svg version="1.1" id="lizard" xmlns="http://www.w3.org/2000/svg" xmlns:xlink="http://www.w3.org/1999/xlink" x="0px" y="0px"
	 width="692.708px" height="516.667px" viewBox="0 0 692.708 516.667" enable-background="new 0 0 692.708 516.667"
	 xml:space="preserve">
<g id="parts">
	<path stroke="#000000" stroke-width="0.75" d="M124.16,510.384c70.455,10.678,154.845-23.7,199.92-95.765
		c2.063,16.209,15.975,4.891,39.19-15.109c4.037,23.127,4.173,62.096,12.729,68.066c9.371,7.583,26.916,14.543,27.461,7.517
		c-1.252-6.148-19.92-9.081-13.093-12.812c8.555-5.04,46.257,15.7,11.403-7.951c-17.672-13.121,14.535-5.301,27.316-5.44
		c13.554-1.298-7.664-2.793-22.149-13.436c-14.401-10.224,5.179-2.708,24.362-8.095c18.501-5.926-25.584-2.855-36.514-8.149
		c-12.102-5.333,14.217-45.802,7.212-58.087s-46.909,19.258-56.176,7.774c-0.313-72.257,41.717-161.527,97.162-220.491
		c0.819-0.874,14.344-10.547,15.181-11.406c4.137-5.949,13.713,3.723,8.624,15.839c-6.478,15.936-17.602,32.827-19.74,53.175
		s-6.967,40.602,2.886,55.739c9.853,15.139,31.636,27.831,32.068,20.795c-1.152-6.132-19.806-9.081-12.635-14.521
		c8.211-3.33,45.908,17.429,10.934-6.235c-17.559-13.121,14.652-5.31,27.325-5.438c13.671-1.308-7.55-2.793-22.155-13.447
		c-14.277-10.222,5.291-2.699,24.361-8.095c18.622-5.914-25.463-2.844-36.514-8.15c-11.989-5.324-2.392-43.038,6.475-53.156
		c7.951-8.669,28.731-34.664,22.38-62.82c8.95-4.289,44.892-11.734,58.514-7.715c0.139,32.064,89.524-2.907,112.406-26.43
		c24.722-23.995,18.817-20.676-0.127-33.243c-34.12-21.065-118.287-41.099-113.065,2.32c-15.456,4.499-87.248,7.998-101.412,12.778
		c-19.299-24.754-30.497-22.365-41.031-18.613c-10.962,4.744-50.357,18.065-55.416,6.966c-6.308-11.576-4.671-55.731-10.429-36.063
		c-4.321,18.36,3.818,37.675-6.576,24.026c-11.404-14.548-13.566-35.699-14.188-22.329c0.028,13,8.89,44.942-3.613,26.684
		c-25.953-33.055-3.999,3.965-8.91,12.325c-3.354,7.292-6.901-11.263-13.563-11.095c-6.527-0.471,1.695,24.071,23.133,30.977
		c21.438,6.904,41.867,2.907,57.096,1.633c15.226-1.275,54.731-17.501,48.67-4.708c-1.701,4.283-66.374,37.186-105.852,94.289
		c-39.477,57.104-57.125,164.64-56.726,169.353c-21.097-25.65-37.742-37.559-48.042-33.451
		c-11.187,4.392-40.949,34.638-49.817,26.965c-9.769-9.538-23.813-51.443-22.606-32.025c2.777,19.733,17.22,34.925,2.004,26.385
		c-15.139-10.146-24.629-29.179-19.496-16.42c3.627,12.128,23.172,38.898,5.438,27.324c-36.35-22.878-2.755,4.006-3.29,12.019
		c-1.668,9.539-11.528-6.557-17.168-4.699c-6.808,2.522,6.354,16.067,16.372,21.091c9.362,6.326,45.403-8.453,68.069-12.74
		c15.939-2.438,40.636-7.362,42.604,6.126c3.499,13.959,13.345,49.085,23.684,41.537c-57.805,94.023-191.469,95.808-225.563,28.673
		c-35.425-68.866-1.288-126.872,20.248-179.037c-23.962,19.361-63.48,85.246-56.1,143.169
		C16.112,454.974,62.425,501.027,124.16,510.384z M297.866,341.949c-5.695-5.706,1.503-13.066,4.145-19.912
		c0.031-0.986,0.022-1.975-0.041-2.956c-4.815-7.445-8.254-15.032-5.799-21.275c0.315-0.774,0.712-1.536,1.231-2.265
		c10.104-2.326,14.097-7.069,14.543-14.153c0.057-0.887,0.06-1.808,0.011-2.765c-5.475-11.172-6.558-20.282,0.766-27.908
		c0.728-0.766,1.562-1.501,2.601-2.15c9.818-1.896,11.833-8.311,12.363-15.32c0.068-1.007,0.117-2.02,0.138-3.041
		c-3.522-9.518-0.066-16.918,6.306-22.658c0.797-0.715,1.64-1.408,2.519-2.079c4.853-3.98,13.27-0.64,16.255-3.97
		c2.37-2.979,1.606-6.817,0.942-10.68c-0.173-0.96-0.323-1.924-0.433-2.887c-3.389-10.082-0.83-18.672,6.85-22.79
		c0.859-0.449,1.785-0.839,2.855-1.033c6.396-0.571,16.915,6.455,18.764-0.296c0.33-1.206,0.393-2.609,0.385-4.136
		c0-0.757-0.014-1.538-0.033-2.342c-2.341-8.303,0.537-14.233,5.634-18.458c0.724-0.6,1.491-1.167,2.301-1.702
		c9.465,1.896,14.662,1.546,18.323-2.397c0.604-0.653,1.174-1.41,1.703-2.281c5.315-8.208-2.217-18.564,3.753-25.225
		c1.185-1.49,2.558-1.768,4.063-1.438c0.743,0.162,1.527,0.479,2.344,0.869c8.588,2.6,14.893,13.656,21.472,12.348
		c3.422-1.137,3.447-5.019,3.606-9.235c0.041-1.058,0.086-2.134,0.199-3.191c2.703-7.564,0.785-19.494,8.593-21.505
		c1.875-0.523,3.611-0.161,5.3,0.487c0.844,0.324,1.68,0.719,2.503,1.12c3.508,2.526,8.33,3.847,11.752,2.709
		c8.6-4.903,14.468,3.961,14.38,10.873c0.003,0.747-0.05,1.469-0.169,2.131c-5.988,9.983-13.694-3.531-21.899-1.848
		c-0.895,0.201-1.74,0.488-2.542,0.839c-6.442,2.819-10.2,10.146-12.427,19.376c-0.222,0.853-0.43,1.687-0.679,2.479
		c-0.744,2.378-1.769,4.378-3.978,5.329c-8.336,3.938-12.711-6.59-19.634-8.039c-0.762-0.137-1.452-0.149-2.022,0.037
		c-9.736,1.482-1.595,17.188-7.977,24.711c-0.509,0.721-1.037,1.364-1.603,1.914c-3.917,3.895-9.337,3.997-18.465-0.648
		c-0.836,0.445-1.549,1.039-2.17,1.719c-4.394,4.687-5.009,12.314-2.345,21.598c-0.003,1.066-0.045,2.092-0.191,3.047
		c-0.455,2.872-1.881,5.053-5.895,5.51c-6.315,0.345-12.274-4.396-19.078-5.751c-0.867-0.165-1.693-0.257-2.438-0.222
		c-1.491,0.068-2.685,0.644-3.388,2.266c-3.514,5.259,2.354,14.123,2.472,21.195c0.108,1.232,0.075,2.373-0.034,3.494
		c-0.863,8.949-5.546,16.926-17.119,13.604c-1.437,0.135-2.566,0.51-3.535,0.981c-9.717,4.629-5.862,15.471-2.772,27.514
		c-0.12,1.046-0.308,2.072-0.558,3.062c-1.511,5.974-5.355,10.851-13.244,13.274c-0.865,0.354-1.803,0.637-2.738,0.909
		c-2.808,0.828-5.615,1.615-6.407,4.508c-0.62,6.052,3.147,11.229,7.177,15.443c1.401,2.457,0.609,5.351,0.756,8.678
		c-0.146,0.986-0.375,1.939-0.695,2.847c-1.589,4.553-5.387,8.086-12.011,9.714c-0.638,0.852-1.109,1.739-1.439,2.645
		c-2.065,5.572,0.576,11.945,3.854,18.191c0.47,0.896,0.952,1.785,1.435,2.674c1.825,8.483-3.445,16.372-10.816,20.575
		C303.125,345.462,299.268,344.406,297.866,341.949z"/>
	<path fill="#FFFFFF" stroke="#FFFFFF" stroke-width="1.125" d="M611.898,91.512c2.172-5.107-0.602-9.974-6.233-10.934
		c-3.79-1.619-8.657,1.155-10.927,6.236c-0.311,4.345,2.465,9.211,6.229,10.928C606.625,98.604,611.49,95.83,611.898,91.512
		L611.898,91.512z"/>
	<path fill="#FFFFFF" stroke="#FFFFFF" stroke-width="1.125" d="M614.593,47.964c0.433-4.544-2.335-9.408-6.229-10.929
		c-5.535-1.061-10.409,1.712-10.932,6.231c-2.058,4.906,0.726,9.774,6.233,10.934C607.586,55.622,612.445,52.846,614.593,47.964
		L614.593,47.964z"/>
</g>
</svg>
