<?xml version="1.0" encoding="utf-8"?>

<!DOCTYPE svg PUBLIC "-//W3C//DTD SVG 1.1//EN" "http://www.w3.org/Graphics/SVG/1.1/DTD/svg11.dtd">
<svg version="1.1" id="Layer_1" xmlns="http://www.w3.org/2000/svg" xmlns:xlink="http://www.w3.org/1999/xlink" x="0px" y="0px"
	 viewBox="0 0 804.836 1689.529" enable-background="new 0 0 804.836 1689.529" xml:space="preserve">
<g>
	<path fill="#231F20" d="M750.198,761.619c-6.45-19.68-6.589-11.479-13.705-13.031c-20.046-4.369-75.703,10.983-75.286,1.002
		c0.186-4.342-2.01-8.096-2.119-12.612c-0.691-27.994,14.062-26.768,16.843-30.105c0.674-0.213,0.288-0.153,0.946-0.272
		c0.555,0.094,1.712,0.045,2.027-0.418c1-0.49,5.044-4.182,1.091-8.723c-19.003-21.875,2.399-43.388,2.789-52.113
		c5.663-2.822,11.493-16.495,29.923-18.233c2.179-0.204,3.884-1.773,4.974-3.786l-0.048,0.04c0.012-0.021,0.026-0.041,0.038-0.063
		l-0.106,0.089c-1.137-6.337-8.85-12.46-12.018-24.871c-3.425-13.471,0.942-46.028,27.107-64.169
		c6.4-4.434,5.911-7.918-1.071-11.471c-26.633-13.529-13.111-86.471,13.477-63.071c1.236,1.081,4.442,3.866,6.877,4.042
		c-0.06-2.125-6.058-14.715-15.67-17.287c-9.118-2.44-19.392-4.214-20.624-16.858c-4.808-49.428,6.028-38.323,8.131-50.075
		c4.564-2.567,4.352-4.851-0.007-7.679c-7.288-4.721-17.006-6.334-25.963-37.257c-7.974-27.599,21.7-27.612,29.104-16.873
		c6.813,9.903,4.167-17.042-14.059-16.178c-22.267,1.058-60.218-19.335-46.118-49.171c7.717-16.342-29.905-2.824-47.832-37.397
		c-3.761-7.261-4.903-15.636-2.681-25.557c0.455-2.03,0.215-3.649-0.611-4.819c-1.058-1.51-3.088-2.276-5.863-2.214
		c-7.915,0.171-15.369-1.517-22.404-5.322c-12.915-6.982-39.475-25.204-35.672-39.742c3.274-12.467-7.091-8.457-6.655-5.518
		c0.391,2.591,2.152-0.533,3.265,0.34c0.862,0.676,1.87,0.259,0.331,1.408c-4.408,3.292-4.634,10.785-6.629,8.602
		c-4.364-4.783-11.349-2.143-15.91-6.013c-5.489-4.648-10.93-9.355-16.512-13.894c-13.104-10.678,9.612-23.896-8.106-23.136
		c-3.644,0.156-9.143,4.221-7.574-4.802c0.435-2.503-3.861-2.93-6.494-2.075c-3.141,1.02-28.43,12.646-32.811,4.211
		c-1.533-2.945,11.57-17.225,5.894-17.659c-1.226-0.094-3.108-1.854-3.581-0.229c-1.45,4.996-5.197,1.255-7.612,2.335
		c-0.321,0.145-0.936-0.37-1.429-0.596c1.057-1.375,7.259-2.261,3.9-5.057c-1.738-1.491-10.743-1.275-12.249-1.584
		c-20.165-4.142-3.23-10.488-15.857-14.002c-4.425-1.231-2.118,9.044-11.435,8.156c-12.757-1.216-5.324,21.699-28.916,25.275
		c-29.812,4.516-28.46,18.352-38.239,7.812c-9.364-10.142-5.199-8.898-7.436-10.46c0.661-3.295,1.57-7.667-0.197-10.661
		c1.264-9.902,6.564-17.867,11.824-26.013c1.272-1.971,4.955-4.757,3.911-7.15c-2.732-6.446-6.779,2.939-7.646,3.939
		c-7.86,9.069-14.869,18.725-14.506,31.649c-3.947,1.688-2.355,27.934-2.286,28.948c1.291,19.152-19.549,21.552-38.626,42.472
		c-7.541,4.264-14.539,9.635-19.318,16.588c-4.684,6.805-11.788,9.752-17.577,14.69c-1.742,1.482-3.909,0.563-3.465-0.738
		c1.849-5.403-1.967-11.063,0.113-15.729c5.179-11.611,7.059-24.973,17.123-34.158c1-0.913,2.192-1.835,1.25-2.983
		c-3.405-4.141-25.767,27.617-26.475,31.242c-1-0.552-3.108,5.463-2.908,5.692c-3.147,4.403-2.594,8.872-18.919,29.514
		c-0.613,0.395-6.159,3.919-6.534,4.548c-34.309,23.511-38.931,30.157-51.968,28.247c-2.304-0.341-3.106,1.426-3.928,2.966
		c-13.49,25.25,8.041,38.435-15.56,47.871c-36.595,14.6-23.259,14.882-31.478,8.14c-0.616-0.525-1.276-0.381-2.176,1.319
		c-13.898,26.194-72.959-7.869-60.345,19.592c4.64,10.094,10.768,17.233,3.043,61.219c-0.477,2.724-3.333,6.505,2.036,7.571
		c3.014,0.598,6.127,1.009,8.174-0.948c2.029,1.3,5.335,0.875,5.69,0.255c2.757-0.257,3.101-0.741,10.199,1.49
		c25.336,7.98,36.462-5.135,70.762-16.75c3.903-1.324,7.928,5.196,8.514-0.769c0.55-5.596,86.941-17.536,89.576-17.893
		c8.534-1.156,15.18-0.014,19.66,7.34c3.74,6.134,10.529,5.169,20.62,30.895c0.928,2.358-0.702,6.098,3.627,6.366
		c6.208,0.39,12.34-17.865,26.611-24.017c22.827-9.833,43.014,0.519,71.019-7.661c5.397-1.577,11.083-3.338,14.942,2.419
		c10.452,15.556,17.378,12.382,18.495,5.877c2.195-12.867,2.162-10.836,16.241-13.619c76.293-15.104,62.343-15.52,73.546-8.582
		c10.317,6.557-24.373,50.448-39.274,63.329c-4.315,3.791-9.602,6.522-12.819,11.505c-3.852,3.216,1.485-1.162-2.367,1.994
		c-2.381-0.243-3.225,1.889-4.48,3.375c-1,0.617-98.044,72.491-105.934,84.753l-0.084-0.052c-0.969,0.994-0.695,0.624-1.696,1.455
		c-3.77,0.893-7.204,2.129-10.986,4.131c-29.023,15.401-5.313,15.094-16.403,33.511c-0.446,0.739-1.372,1.54-1.044,2.334
		c-0.637,0.726-1.241,1.478-1.82,2.252c-3.192,0.142-3.391,9.027-8.458,8.104c-4.499-0.82-6.558,3.592-10.327,4.545
		c-0.451,0.109-0.764,0.292-0.978,0.51c-1-0.172-7.339,3.63-5.458,4.465c-2.654,1.723-7.156,9.584-11.749,16.419
		c-1.589,2.361-3.583,4.359-0.752,7.279c0.972,1,1.778,4.284-1.003,3.573c-4.71-1.208-20.697,19.79-22.415,22.261
		c-20.396,29.348-10.744,38.494-14.335,52.307c-2.138,8.239-7.534,15.754-9.146,23.549c-0.649,0.254-0.481,1.061-0.965,5.71
		c-0.758,1.69-1.422,2.612-0.559,2.929c-0.093,0.248-0.177,0.425-0.034,0.651c-0.42,1.014-0.345,2.396-0.412,3.708
		c-2.812,53.633-8.039,39.941-3.032,54.88c15.709,46.919,6.365,43.907,13.526,72.569c1.949,7.801,14.111,37.463,14.383,37.763
		c0.559,1.61,0.747,3.694,1.827,4.972c1.547,7.154,21.951,29.042,25.643,47.374c0.998,4.954,3.104,1.581,5.755,2.771
		c1.65,0.741,16.156,1.078,16.487,0.936c9.822-4.211-9.444,28.25-1.165,38.262c0.342,1.608,0.145,3.673,2.803,3.329
		c4.04,5.61,5.69,2.44,4.011-2.227c0.477-7.064,1.435-15.525,1.435-15.525c1.471-5.817-0.23-12.656,5.426-17.129
		c2.674,5.585-0.297,12.448-0.927,39.457c1.058,0.091,2.209-0.724,2.246-3.687c0.122-9.727,1.31-20.568,1.31-20.568
		c-0.025-1.371-0.278-13.648,2.599-14.55c3.278,20.478,0.443,39.028,5.063,37.475c1.589-0.541-2.91-35.075,1.508-34.364
		c3.83,0.612-0.789,1.882,0.639,4.253c0.196,0.327,0.377,0.643,0.363,0.929c-0.448,9.988,5.065,19.096,4.241,29.134
		c-0.215,2.606,6.43,3.141,4.419-1.189c-1.87-3.986-9.511-39.596,0.196-30.147c6.255,6.119,14.037,10.157,21.857,13.101
		c36.846,13.907,20.824,61.498,72.572,182.917c0.246,5.825,4.845,13.609,5.845,13.46c0,0,18.775,42.735,19.013,43.126
		c-0.857,0.264-0.256,1.254,0.178,2.509c-0.024,0.056,1.758,5.623,2.035,5.668c0.398,1,3.208,7.712,4.401,7.534
		c1.371,2.807,25.863,53.958,32.501,63.175c0.158,1.567,0.743,3.039,1.548,4.416c0.454,2.514,1.498,4.781,3.54,6.265
		c9.183,18.811,16.309,35.582,16.309,35.582c-0.158,1.808,0.353,3.584,1.343,5.079c0.032,2.729,25.117,54.134,21.161,109.975
		c-0.956,13.555-7.809,38.934-7.809,38.934c-1.602,2.231-3.922,7.155-2.922,7.821c-30.426,66.322-71.521,81.827-149.234,89.47
		c-46.078,4.52-86.579-29.972-84.29-50.788c0.327-2.918-3.636-3.273-4.248-7.951c-0.79-6.065,5.706-12.258-0.284-18.188
		c-0.168-0.168,0.477-1.462,0.996-1.964c8.766-8.456-3.689-8.482,2.675-13.652c9.542-7.694,1.699-7.864,18.436-20.415
		c16.555-12.415,34.671-3.621,44.799-1.103c3.536,0.875-1.74,10.173,6.914,12.55c3.021,0.797-6.724,6.486,1.862,11.389
		c3.154,1.8-6.328,6.882-3.299,10.651c5.295,6.597-4.564,2.63-4.188,7.176c0.404,4.947-1.636,6.106-6.045,4.019
		c-4.063-1.945-7.66,7.727-11.069,0.07c-0.474-1.063-2.325-2.385-3.305-2.216c-8.289,1.433-0.559-7.539-5.412-8.162
		c3.908-1.744,2.2-5.124,9.934-12.61c6.629-6.414-7.098-20.904-26.597,3.029c-32.581,40.016,51.27,75.576,78.258,22.38
		c21.446-42.268-6.179-80.291-24.751-84.551c-7.751-1.778-12.125-9.089-21.241-10.245c-14.836-1.885-29.207-4.643-43.888-0.061
		c-2.996,0.932-5.89-2.769-9.104,0.033c-13.374,11.66-15.243,11.185-16.354,13.982c-0.416,0.047-0.83,0.101-1.236,0.177
		c-0.658-1-8.189-2.279-9.597,2.349c-5.076,16.684-21.624,15.493-20.534,21.86c1.086,6.326-5.119,15.074-8.808,19.482
		c-1.436,0.769-2.508,1.98-3.074,3.282c-0.754,0.676-1.756,1.579-0.36,1.663c-0.146,12.114-3.672,21.16-7.937,33.107
		c-2.845,7.953,5.601,2.019,5.436,16.345c-0.048,3.97,1.232,8.731,2.575,9.438c-0.383,1.066-0.785,2.128-1.157,3.2
		c-2.25,1.409-3.45,3.139-1.384,4.812c9.177,7.433,9.513,20.185,12.528,25.992c-0.008,0.205-0.022,1.277-0.041,1.399
		c-0.418,0.878-1.749,3.619-0.889,4.072c-0.102,0.438-0.1,0.809,0.399,0.946c0.253,1.086,1.576,1.721,2.665,2.004
		c9.317,2.431,9.582,12.907,15.973,17.947c0.489,0.387-0.583,2.389,0.67,2.746c0.543,3.112,5.374,6.835,6.111,5.666
		c7.416-0.851,10.37,8.317,16.848,8.606c1.658,0.954,1.902,1.759,4.332,2.821c1.183,1.38,4.566,3.52,5.1,3.69
		c2.332,4.336,9.389,6.38,9.079,4.492c0.023-0.014,0.043-0.03,0.064-0.048c2.644,0.652,5.29,1.295,7.935,1.949
		c7.522,4.644,0.465,0.09,11.665,4.768c1.921,1.779,9.692,0.954,11.633,8.449c0.888,3.431,4.889-0.515,8.555-1.296
		c4.971-1.047,10.072,0.894,14.774,1.616c6.016,0.927,14.212-1.834,17.788,6.728c1.597,3.828,11.847-4.47,17.203-3.602
		c1.027,0.163,2.189,0.493,3.172,0.039c2.945,0.81,6.008,0.757,8.244-1.307c3.842,0.769,1.41-4.078,0.508-7.086
		c5.448,5.796,1.974,8.024,14.874,6.118c0.117-0.023,0.197-0.06,0.263-0.122c1.106,0.091,2.875-0.31,3.775,0.242
		c1.688,1.026,0.928,4.089,3.458,4.946c3.096,1.102,9.082-4.418,18.27-7.496c40.706-13.705,22.419-8.992,33.061-5.35
		c8.685,3.04,11.315-12.974,16.756-13.622c17.481-2.083,33.294-16.976,38.055-14.467c2.563,1.41,1.327,5.874,4.747,7.695
		c3.826,2.091,13.563-4.277,11.349-11.276c-4.61-14.549,9.364-20.18,19.232-32.474c2.989-3.726,5.025-3.239,6.525,0.609
		c2.149,5.526,5.418,5.238,10.049,1.785c5.708-4.265-3.429-22.621,2.695-32.535c2.678-2.296,5.103-4.911,6.06-8.369
		c0.135-0.221,0.245-0.456,0.367-0.686c8.396-8.376,6.434-21.888,12.555-15.939c0.73,0.709,1.569,1.253,2.465,1.608
		c1.961,0.79,4.203,0.663,6.163-0.673c2.83-1.919,1.179-4.853,1.091-7.598c-0.184-5.837-2.92-11.089-2.049-17.328
		c1.513-10.825,4.515-21.348,5.599-32.296c0.51-5.144,0.752-13.147,10.313-13.217c3.489-0.033,5.102-3.495,2.529-7.199
		c-8.431-12.175-9.527-25.829-8.299-40.068c0.53-6.161,2.655-10.186,9.502-9.785c4.324,0.254,4.063-2.703,3.317-5.144
		c-2.004-6.587-14.44-10.743-18.81-28.095c-0.701-3.315,0.256-6.748-1.208-10.087c-1.135-2.591,0.562-4.218,3.065-5.535
		c17.902-9.42-6.808-7.759-11.666-27.841c-3.88-16.002-5.348-16.849,0.165-19.637c14.869-7.49,1.042-8.844-2.487-10.598
		c-11.47-5.728-27.497-33.849-12.497-41.276c3.305-1.637,1.456-7.815-2.343-9.075c-13.606-4.477-17.743-10.264-17.986-24.46
		c-0.085-4.971-0.012-9.066,5.454-11.893c4.746-2.454,4.135-6.809-1.095-7.913c-20.786-4.383-16.588-30.837-25.402-29.808
		c-0.144,0.014-0.346-0.544-0.522-0.864c3.295-0.118,0.721-5.247,3.813-4.998c5.124,0.399,8.01-3.148,9.937-7.956
		c2.488-6.245-14.235-2.808-16.999-13.473c-3.995-15.375-13.518-24.256-2.126-34.607c2.873-2.62,2.41-6.091-2.258-6.885
		c-12.46-2.13-17.584-30.264-0.116-38.332c4.71-2.173,3.747-5.281-2.034-8.171c-8.857-4.417-10.927-7.928-9.526-17.446
		c2.535-17.461,1.201-21.695,16.558-22.028c2.737-0.023,5.453-4.623,2.365-7.45c-1.571-1.438-3.02-2.765-0.472-4.734
		c3.852-2.979,6.73,3.147,8.894,7.503c0,0,15.046,45.493,15.047,45.495c1.637,6.201,6.032,19.419,6.032,19.422
		c-0.331,0.233-0.157,0.316,0.149,0.582c0.361,1.49,0.67,2.994,0.715,4.554c0.875,10.797,48.016-4.23,54.772-7.243
		c46.169-20.593,108.572-101.816,118.504-203.014C759.076,831.655,758.988,788.437,750.198,761.619z M303.502,971.088
		c0.38-1.921-0.713-2.985-2.188-3.845c-1.608-10.846,4.02-29.329,4.724-29.153c1.244,0.305,2.511,2.619,1.715,3.895
		c-2.461,3.941-0.104,8.019-0.848,11.963c-0.096,0.502-0.239,1.123-0.152,1.696c-0.621,3.742-1.022,7.5-1.215,11.287
		C303.36,966.598,305.555,970.565,303.502,971.088z"/>
	<path fill="#231F20" d="M542.941,134.767c-0.063,0.111-0.129,0.229-0.201,0.346c0.247,0.013,0.485,0.022,0.731,0.031
		C543.249,134.634,543.37,134.79,542.941,134.767z"/>
	<path fill="#231F20" d="M542.267,137.348c-0.115-0.127-0.234-0.258-0.355-0.387c-0.119,0.119-0.246,0.24-0.37,0.361
		c0.184,0.132,0.36,0.26,0.534,0.39C542.138,137.59,542.208,137.469,542.267,137.348z"/>
</g>
</svg>
