<?xml version="1.0" encoding="utf-8"?>

<!DOCTYPE svg PUBLIC "-//W3C//DTD SVG 1.1//EN" "http://www.w3.org/Graphics/SVG/1.1/DTD/svg11.dtd">
<svg version="1.1" id="Layer_1" xmlns="http://www.w3.org/2000/svg" xmlns:xlink="http://www.w3.org/1999/xlink" x="0px" y="0px"
	 viewBox="0 0 2865.763 1178.16" enable-background="new 0 0 2865.763 1178.16" xml:space="preserve">
<g>
	<path d="M1669.162,414.19c7.656-0.173,15.473-1.292,23.1-2.011c5.203-0.491,17.533-4.691,21.438-0.448
		c1.466,1.593,2.208,3.699,2.992,5.717c5.808,14.946,18.159,34.591,33.876,40.43c12.029,4.468,24.152,4.597,36.722,1.828
		c12.774-2.814,26.324-6.116,39.332-7.382c1.846-0.18,4.02-0.176,5.166,1.282c1.119,1.422,0.667,3.458,0.393,5.247
		c-1.702,11.106,6.114,21.919,15.98,27.295c10.661,5.809,26.953,9.342,38.869,6.375c10.435-2.598,20.995-4.449,31.591-6.137
		c4.031-0.642,7.644-2.83,11.887-2.728c4.635,0.112,5.123,0.322,3.997,4.668c-1.46,5.634,1.362,10.367,3.077,15.218
		c4.04,11.433,14.137,15.343,24.561,18.31c3.894,1.108,7.97,1.72,11.926,2.747c3.179,0.825,6.57,0.867,9.602-0.077
		c13.711-4.271,27.894-6.645,41.67-10.638c6.551-1.899,7.431-1.487,8.268,5.357c1.255,10.267,7.415,17.816,15.384,22.424
		c6.734,3.894,15.104,5.656,23.626,4.981c9.395-0.744,17.082-5.684,25.256-9.242c6.527-2.841,13.235-4.869,19.949-6.97
		c3.472-1.086,4.868,0.058,4.599,3.888c-0.335,4.767,1.267,8.514,3.458,12.67c2.738,5.194,11.773,10.224,16.942,12.752
		c9.762,4.774,22.55,3.051,32.784,0.494c2.378-0.594,4.245-1.556,6.192-3.042c4.829-3.686,10.133-6.477,16.546-6.114
		c6.146,0.348,5.541,9.757,9.289,14.001c4.757,5.387,11.907,8.606,19.009,9.231c7.674,0.676,15.284-1.233,22.324-4.172
		c6.976-2.912,13.806-5.724,20.828-8.567c2.116-0.857,4.491-0.555,5.738,1.621c6.145,10.721,16.916,10.952,27.069,11.249
		c15.719,0.459,30.629-7.179,42.552-16.865c12.694-10.312,25.266-21.101,37.306-32.241c12.615-11.672,25.479-23.111,37.544-35.333
		c14.518-14.707,31.289-26.803,46.144-41.073c22.609-21.719,46.59-41.897,70.125-62.572c9.173-8.058,18.851-15.524,28.796-22.662
		c7.839-5.626,15.116-12.04,22.603-18.152c15.054-12.291,31.868-21.811,48.954-30.844c13.474-7.124,28.071-11.739,42.113-17.558
		c8.528-3.533,18.496-3.544,27.909-3.116c6.755,0.308,7.935,3.989,3.955,9.442c-10.071,13.798-23.119,24.866-34.328,37.619
		c-7.661,8.716-15.59,17.197-23.219,25.94c-10.454,11.98-21.302,23.633-30.454,36.705c-15.538,22.193-34.908,41.284-51.056,63.003
		c-10.396,13.982-21.925,27.106-32.067,41.291c-9.161,12.814-16.634,26.607-23.089,40.963c-0.967,2.15-1.901,4.353-3.18,6.316
		c-5.315,8.159-4.06,17.184-3.553,26.089c0.15,2.635-0.198,5.026-1.013,7.545c-3.307,10.229-5.045,20.521,0.774,30.521
		c1.36,2.337,1.118,4.633,0.128,6.783c-4.187,9.095-5.63,18.357-2.34,28.056c0.198,0.585,0.172,1.295,0.081,1.922
		c-1.989,13.723,4.369,24.816,11.353,35.644c7.578,11.749,15.788,22.995,25.03,33.569c5.903,6.754,10.624,14.535,16.931,21.06
		c14.133,14.622,26.319,30.932,39.688,46.227c19.332,22.116,38.312,44.544,57.194,67.047c13.388,15.956,26.791,31.935,37.387,50.005
		c0.779,1.329,1.376,2.656,1.783,4.086c0.887,3.116-0.139,5.108-3.55,5.318c-2.143,0.132-4.322,0.211-6.449-0.018
		c-11.695-1.258-23.08-3.024-34.28-7.556c-26.297-10.641-50.044-25.52-73.749-40.756c-21.622-13.898-40.813-30.776-60.303-47.282
		c-20.667-17.504-39.593-36.856-58.437-56.325c-19.7-20.353-38.347-41.709-58.724-61.406c-13.604-13.15-24.926-28.527-39.298-40.883
		c-14.191-12.201-28.64-24.208-47.709-28.342c-4.494-0.974-8.996-0.58-13.502-0.542c-2.074,0.018-3.918,1.019-4.916,2.697
		c-3.742,6.289-10.055,10.65-12.96,17.555c-1.555,3.694-4.474,4.295-8.001,3.076c-6.496-2.245-12.54-5.488-18.522-8.782
		c-9.847-5.422-21.69-8.086-32.921-6.745c-9.749,1.164-19.686,1.956-25.053,11.629c-3.926,7.075-0.175,18.988-10.96,17.264
		c-9.438-1.509-18.222-4.954-26.441-9.604c-10.808-6.115-22.026-5.147-32.273-0.427c-7.261,3.345-12.953,9.982-12.963,19.378
		c-0.003,2.773-0.462,5.559-0.878,8.314c-0.61,4.036-2,5.46-6.094,4.679c-9.851-1.881-19.989-2.599-29.154-7.45
		c-5.293-2.802-11.038-4.643-16.765-6.526c-16.695-5.49-31.208,0.369-44.01,9.8c-6.215,4.579-10.279,12.464-12.002,20.807
		c-1.685,8.156-3.274,8.719-11.699,7.21c-12.319-2.207-23.712-7.443-35.809-10.406c-13.227-3.239-25.185-0.565-36.398,6.371
		c-8.62,5.333-12.344,18.029-8.426,27.119c0.507,1.177,0.929,2.415,1.195,3.666c1.105,5.194-0.943,7.68-5.989,6.713
		c-9.658-1.85-19.199-3.71-28.295-8.144c-13.112-6.392-27.284-9.46-41.919-6.593c-11.41,2.235-17.115,5.078-19.638,17.962
		c-1.255,6.41-1.979,12.695-0.51,19.143c0.848,3.724-0.195,5.028-3.95,5.661c-1.993,0.336-3.812-0.398-5.708-0.722
		c-16.104-2.754-31.511-8.036-46.978-13.057c-8.409-2.73-16.843-3.548-25.39-1.307c-8.497,2.228-15.375,6.582-20.74,14.033
		c-11.388,15.817-9.143,31.049-0.008,46.736c8.273,14.208,18.195,26.96,29.932,38.525c7.47,7.361,12.965,16.558,20.074,24.368
		c13.586,14.926,26.912,30.156,41.85,43.709c18.853,17.104,38.686,33.098,59.711,47.535c16.257,11.164,33.316,20.939,50.664,30.319
		c17.548,9.487,35.674,17.648,53.941,25.545c30.307,13.102,62.425,22.603,93.817,33.187c2.151,0.725,4.652,1.845,4.995,4.09
		c0.29,1.901-1.286,3.687-3.106,4.306c-1.82,0.62-3.808,0.36-5.71,0.078c-66.211-9.8-128.001-37.183-188.424-64.735
		c-14.944-6.814-29.343-15.445-43.653-23.577c-19.971-11.35-38.629-24.693-57.801-37.241
		c-16.112-10.545-30.906-22.972-46.191-34.691c-18.914-14.501-37.452-29.485-56.362-43.974
		c-25.585-19.603-51.887-38.268-77.774-57.481c-12.901-9.574-27.083-11.174-42.212-7.507c-13.992,3.391-27.839,7.448-41.928,10.343
		c-11.136,2.288-21.719,6.438-32.869,8.589c-27.21,5.249-54.477,10.19-81.716,15.278c-35.312,6.596-70.941,10.859-106.554,15.2
		c-32.447,3.955-65.031,6.568-97.74,7.19c-5.589,0.106-11.195-0.282-16.774-0.021c-27.508,1.286-55.031,0.834-82.55,0.841
		c-26.717,0.007-53.202-2.772-79.563-6.947c-8.072-1.278-16.147-2.648-24.273-3.448c-6.64-0.654-6.831-0.054-4.473,5.891
		c2.963,7.47,6.891,14.189,12.993,19.673c4.536,4.077,4.394,7.012,0.52,11.683c-0.822,0.991-1.622,2.131-2.692,2.763
		c-8.879,5.25-13.399,14.4-19.634,21.977c-4.961,6.03-8.305,13.017-9.809,20.807c-1.147,5.943-4.598,10.312-9.058,14.42
		c-7.352,6.773-10.867,15.796-12.452,25.542c-0.827,5.086-1.793,10.201-1.981,15.329c-0.359,9.756-6.095,16.806-11.529,23.944
		c-3.422,4.495-5.3,9.215-5.275,14.82c0.029,6.475-0.617,12.895-2.076,19.216c-0.532,2.306-0.918,5.055-3.894,5.184
		c-2.56,0.111-4.201-1.845-5.415-4.006c-1.027-1.828-1.005-5.279-3.115-5.21c-2.735,0.089-2.045,3.714-3.092,5.678
		c-1.349,2.531-0.552,7.019-4.167,7.32c-3.677,0.306-4.073-4.086-5.048-6.608c-3.338-8.64-4.455-17.916-6.908-26.819
		c-6.261-22.721-7.873-46.854-11.203-70.096c-3.643-25.428-7.307-50.854-10.961-76.281c-1.046-7.279-2.128-14.682-5.257-21.337
		c-2.892-6.152-7.084-9.676-12.632-13.232c-5.44-3.487-9.303-6.604-15.836-8.423c-8.758-2.438-17.814-2.921-26.786-3.579
		c-14.839-1.089-29.387-4.072-44.089-6.033c-11.93-1.591-23.828-3.434-35.724-5.271c-19.079-2.946-37.963-6.79-56.799-11.096
		c-26.601-6.08-53.563-10.502-80.319-15.914c-33.498-6.776-66.622-15.206-100.109-21.987c-24.212-4.903-48.662-8.715-72.727-14.231
		c-25.928-5.944-51.843-12.121-77.184-20.399c-50.663-16.55-101.685-31.919-153.004-46.304c-7.275-2.039-14.166-5.089-20.99-8.237
		c-6.155-2.839-10.27-7.614-11.93-14.373c-1.896-7.716-0.21-11.592,7.028-15.176c5.211-2.58,10.526-4.673,16.48-5.182
		c13.735-1.175,26.922-5.313,40.394-7.879c17.55-3.344,34.774-7.911,51.953-12.617c10.136-2.777,19.734-7.366,28.884-12.649
		c4.145-2.393,7.244-6.092,10.129-9.818c1.7-2.196,2.289-4.829,1.544-7.9c-1.439-5.932-3.599-11.306-7.407-16.23
		c-15.283-19.764-31.574-38.625-49.221-56.312c-3.951-3.96-8.015-7.81-11.873-11.857c-4.973-5.217-10.552-9.422-17.428-11.846
		c-4.689-1.653-7.588-5.539-10.569-9.211c-2.012-2.479-1.206-4.815,0.808-6.907c3.639-3.781,7.885-6.567,12.903-8.246
		c17.329-5.8,35.042-10.292,52.599-15.293c10.166-2.896,19.984-6.565,29.779-10.419c15.595-6.136,31.305-11.987,46.814-18.33
		c10.719-4.384,20.851-10.125,31.862-13.896c24.6-8.425,49.136-17.054,73.779-25.328c19.934-6.693,40.445-11.67,60.716-17.353
		c16.13-4.522,32.053-9.73,48.334-13.771c35.046-8.697,69.803-18.577,105.206-25.81c35.594-7.272,71.206-14.487,107.152-19.843
		c29.761-4.434,59.581-8.466,89.35-12.846c10.878-1.6,21.163-5.697,31.835-8.224c3.29-0.779,5.392-3.472,7.332-6.065
		c6.566-8.775,13.363-17.398,19.514-26.458c12.117-17.844,26.574-33.811,39.824-50.74c10.869-13.887,22.686-26.957,33.78-40.61
		c9.528-11.725,21.162-21.317,30.62-33.008c11.578-14.312,25.998-25.655,39.841-37.589c0.974-0.839,1.928-1.78,3.055-2.345
		c2.328-1.169,4.333-0.619,5.102,1.998c0.78,2.658,1.355,5.335,0.762,8.245c-0.856,4.198-1.136,8.51-1.889,12.733
		c-0.721,4.039-0.005,7.77,2.153,11.13c2.331,3.628,3.168,7.526,2.621,11.687c-0.602,4.577,1.027,8.292,3.41,12.073
		c2.697,4.278,5.581,8.425,5.779,14.028c0.16,4.553,3.715,7.785,7.663,9.754c5.103,2.545,7.42,6.195,8.346,11.948
		c1.565,9.726,8.042,15.973,17.272,19.041c2.762,0.918,5.03,2.075,7.078,4.117c1.966,1.96,4.359,3.482,6.482,5.294
		c6.133,5.234,12.876,7.124,20.82,4.625c3.863-1.215,7.62,0.104,9.215,3.914c4.157,9.929,12.274,12.436,21.888,12.581
		c1.507,0.023,3.014-0.016,4.521-0.026c3.667-0.023,6.468,1.363,8.874,4.309c3.384,4.144,6.977,8.175,11.473,11.229
		c4.067,2.762,8.378,4.308,13.389,2.999c1.438-0.376,2.991-0.29,4.472-0.532c5.081-0.829,8.683,0.953,11.141,5.591
		c2.248,4.241,5.577,7.29,10.037,9.599c5.441,2.818,10.768,3.98,16.734,2.824c3.98-0.772,7.463-0.057,10.69,2.906
		c7.514,6.899,16.53,8.727,26.431,6.849c2.103-0.399,4.259-0.92,6.363-0.821c3.308,0.156,6.017,1.237,7.639,4.784
		c3.286,7.188,9.893,9.62,17.144,10.385c4.264,0.45,8.602,0.223,12.907,0.27c4.201,0.046,7.739,1.66,9.694,5.347
		c4.456,8.4,12.615,10.415,20.736,12.5c3.954,1.015,8.025,1.605,12.14,1.499c4.701-0.122,8.309,1.779,10.926,5.654
		c4.653,6.892,11.058,11.193,19.042,13.527c5.802,1.696,11.703,2.757,17.614,3.859c11.109,2.072,20.357-2.954,28.902-8.642
		c21.291-14.171,43.451-27.038,64.001-42.318c16.906-12.571,34.69-23.785,52.547-34.929c5.744-3.585,10.803-8.343,16.615-11.932
		c8.944-5.524,17.957-10.94,27.012-16.283c9.216-5.438,18.346-11.058,27.82-16.013c29.34-15.346,59.97-28.192,91.372-38.675
		c31.055-10.368,62.726-17.07,94.492-24.595c20.034-4.746,40.924-6.489,61.41-7.97c5.025-0.363,9.826,1.062,14.478,2.803
		c8.053,3.014,4.855,5.489-1.372,7.542c-14.732,4.858-29.769,10.063-45.536,10.063c-10.322,1.115-20.3,3.321-30.12,6.334
		c-61.719,18.936-117.798,49.676-171.145,85.502c-30.805,20.688-54.114,52.279-74.053,82.998
		c-4.217,6.497-5.677,13.338-4.738,20.859c0.558,4.475,0.714,9.056,1.811,13.397c2.631,10.406,8.962,18.454,17.377,24.881
		C1632.848,410.82,1649.747,414.629,1669.162,414.19z"/>
</g>
</svg>
