<?xml version="1.0" encoding="UTF-8" standalone="no"?>
<!-- Created with Inkscape (http://www.inkscape.org/) -->

<svg
   xmlns:dc="http://purl.org/dc/elements/1.1/"
   xmlns:cc="http://creativecommons.org/ns#"
   xmlns:rdf="http://www.w3.org/1999/02/22-rdf-syntax-ns#"
   xmlns:svg="http://www.w3.org/2000/svg"
   xmlns="http://www.w3.org/2000/svg"
   xmlns:sodipodi="http://sodipodi.sourceforge.net/DTD/sodipodi-0.dtd"
   xmlns:inkscape="http://www.inkscape.org/namespaces/inkscape"
   id="svg11363"
   version="1.1"
   inkscape:version="0.91 r13725"
   width="1135"
   height="199"
   viewBox="0 0 1135 199"
   sodipodi:docname="SimpleDesign10.svg">
  <metadata
     id="metadata11369">
    <rdf:RDF>
      <cc:Work
         rdf:about="">
        <dc:format>image/svg+xml</dc:format>
        <dc:type
           rdf:resource="http://purl.org/dc/dcmitype/StillImage" />
        <dc:title></dc:title>
      </cc:Work>
    </rdf:RDF>
  </metadata>
  <defs
     id="defs11367" />
  <sodipodi:namedview
     pagecolor="#ffffff"
     bordercolor="#666666"
     borderopacity="1"
     objecttolerance="10"
     gridtolerance="10"
     guidetolerance="10"
     inkscape:pageopacity="0"
     inkscape:pageshadow="2"
     inkscape:window-width="1600"
     inkscape:window-height="837"
     id="namedview11365"
     showgrid="false"
     inkscape:zoom="0.97268722"
     inkscape:cx="567.5"
     inkscape:cy="99.5"
     inkscape:window-x="-8"
     inkscape:window-y="-8"
     inkscape:window-maximized="1"
     inkscape:current-layer="svg11363" />
  <path
     style="fill:#3d3d00"
     d="m 752.33988,198.09281 c -13.49163,-3.43019 -20.92823,-16.18987 -15.54175,-26.66647 5.33132,-10.36931 15.82938,-13.83178 24.57104,-8.10402 3.09993,2.03115 5.31033,7.37263 3.95027,9.54592 -1.67514,2.67678 -5.60268,2.52362 -8.27671,-0.32276 -2.95116,-3.14137 -6.40133,-3.24278 -10.6759,-0.3138 -6.00479,4.11455 -6.45418,8.17405 -1.61894,14.62443 7.30657,9.74722 24.61969,7.40927 31.74724,-4.28713 2.66563,-4.37433 2.99748,-5.78553 2.93942,-12.5 -0.14161,-16.37693 -7.39043,-24.61495 -26.00785,-29.55699 -11.2346,-2.98225 -12.84797,-3.96671 -9.97528,-6.08684 2.09696,-1.54761 4.42066,-1.37143 15.55147,1.1791 16.53267,3.78831 27.22598,17.2185 27.3864,34.39575 0.0611,6.54245 -0.33285,8.2756 -3.08561,13.57486 -4.71759,9.08171 -11.87903,13.92949 -21.8672,14.80251 -3.26506,0.28539 -7.35853,0.15733 -9.0966,-0.28456 z M 353.5,195.64715 c -2.75,-1.28332 -6.71899,-4.24007 -8.81997,-6.57056 -9.09065,-10.08367 -10.13868,-21.60732 -3.21527,-35.35346 2.17935,-4.327 5.27398,-8.81103 6.97608,-10.10813 7.43122,-5.66301 20.98225,-10.47858 25.96652,-9.22761 4.70444,1.18074 4.0012,5.5331 -0.90736,5.6156 -1.1,0.0185 -5.825,1.59543 -10.5,3.50434 -9.44853,3.85803 -13.48684,7.53423 -17.56799,15.99267 -7.52894,15.6042 2.65889,33.46423 19.1061,33.49442 4.46653,0.008 11.60719,-3.98792 14.28521,-7.99442 4.11848,-6.16152 1.13799,-14 -5.32332,-14 -3.34768,0 -6.5,2.52491 -6.5,5.2063 0,2.54686 -2.57478,4.09164 -4.81843,2.89087 C 359.78956,177.81701 359,175.88682 359,171.31942 c 0,-9.05798 14.3076,-13.5849 22.51973,-7.12524 5.78409,4.54977 7.47261,16.55361 3.21684,22.86876 -4.39568,6.52275 -13.74069,10.95566 -23.03579,10.92729 -1.76043,-0.005 -5.45078,-1.05976 -8.20078,-2.34308 z m 205.75345,-12.47029 c -0.6856,-0.43485 -1.94054,-3.12753 -2.78874,-5.98375 -1.67567,-5.64258 -2.28918,-6.00945 -5.99217,-3.58316 -2.93856,1.92542 -5.93863,1.12661 -5.15315,-1.3721 0.51302,-1.632 3.37111,-9.13083 10.51658,-27.59255 1.67206,-4.32009 3.3185,-8.13311 3.65877,-8.47337 1.39584,-1.39585 5.81605,2.62443 7.50731,6.82807 3.84414,9.55464 7.99795,23.78257 7.99795,27.39516 l 0,3.78064 -3.99186,-0.67442 c -3.73662,-0.6313 -4.05529,-0.49306 -4.98413,2.1621 -2.43239,6.95323 -4.33131,9.06048 -6.77056,7.51338 z M 594.79863,166.25 c -0.83123,-0.9625 -5.01037,-8.5 -9.28695,-16.75 -4.27659,-8.25 -8.39123,-15.88763 -9.14365,-16.97251 C 573.71104,128.69649 575.25642,124 579.174,124 c 1.7069,0 34.76642,16.87574 37.49387,19.13932 2.31991,1.92536 1.57673,4.76898 -1.41787,5.42515 -5.46378,1.19721 -5.43503,1.09787 -2.10099,7.26121 4.89207,9.04352 2.07325,12.09947 -5.72087,6.20214 -5.83936,-4.41828 -6.18551,-4.27627 -7.85425,3.22218 -0.70053,3.14785 -2.58035,3.54151 -4.77526,1 z M 523.38401,163 c -0.35179,-2.2 -1.06396,-4 -1.58259,-4 -0.51862,0 -3.52589,1.43085 -6.68281,3.17966 -9.55408,5.29259 -12.10988,1.99652 -4.99482,-6.44152 2.32413,-2.75628 3.74246,-5.2626 3.25,-5.74306 -0.48059,-0.46887 -2.44879,-0.99707 -4.37379,-1.17378 -2.68806,-0.24677 -3.57076,-0.81752 -3.80501,-2.46033 -0.25191,-1.76665 1.21873,-2.96962 8.44754,-6.91005 17.7205,-9.65945 29.90913,-15.48272 31.85747,-15.2203 3.44439,0.46393 2.85355,4.31305 -2.07172,13.49669 -2.58768,4.82498 -7.13851,13.38519 -10.11296,19.02269 -4.02267,7.62421 -5.90552,10.25 -7.34988,10.25 -1.49217,0 -2.08991,-0.92623 -2.58143,-4 z M 470,134.26172 c -5.00753,-2.52053 -8.2576,-9.45575 -8.22495,-17.55095 0.0288,-7.15132 2.59371,-23.019319 4.8406,-29.947349 2.39385,-7.381143 1.43051,-8.761832 -2.3932,-3.429999 -1.80266,2.513647 -8.55266,9.915576 -15,16.448733 -12.99366,13.166595 -25.81103,22.512155 -37.46791,27.319065 -3.9778,1.64031 -8.38698,4.08858 -9.79818,5.44059 -1.99093,1.90743 -3.6325,2.45819 -7.32682,2.45819 -2.61856,0 -5.52349,-0.40806 -6.45539,-0.9068 -2.03391,-1.08851 -10.316,-2.2884 -15.17415,-2.1984 -1.925,0.0357 -8.41121,-0.6092 -14.41381,-1.43303 -9.0281,-1.23907 -12.1085,-2.14268 -17.8283,-5.22982 -14.23223,-7.68154 -23.52323,-18.68588 -27.72415,-32.836712 -1.98051,-6.671379 -2.50171,-7.583422 -3.4343,-6.009707 -2.88947,4.875882 -14.34495,17.761799 -20.77156,23.365279 -12.54526,10.93844 -24.79828,16.46927 -41.6881,18.81737 -9.74201,1.35438 -11.64855,1.35242 -18.22481,-0.0188 -9.56364,-1.99408 -21.37588,-7.65718 -25.90723,-12.42061 -5.79117,-6.08779 -11.16776,-18.025129 -11.68684,-25.947626 -0.82564,-12.601252 -0.20738,-12.03251 -17.05159,-15.685906 -8.45839,-1.834568 -11.68225,-2.086664 -18.60991,-1.455239 -9.65636,0.880134 -13.94816,2.745542 -16.69988,7.25852 -3.81554,6.257689 -1.42981,13.072988 4.37835,12.507645 3.60284,-0.350685 4.58076,-2.721209 2.62789,-6.370171 -2.62801,-4.910487 1.86066,-7.128506 8.00063,-3.953405 6.68726,3.458118 4.33349,13.689732 -4.16673,18.112392 -8.36565,4.35265 -18.78695,-3.07396 -18.79592,-13.39467 -0.004,-5.114412 1.64518,-8.568222 6.16094,-12.899116 8.68648,-8.330866 21.10308,-9.84379 39.33532,-4.792886 C 191.20927,73.583266 190.83492,73.655847 194.59499,66 200.19696,54.593867 208.43109,49.032333 219.95666,48.870092 230.71634,48.718632 237,53.62749 237,62.184519 c 0,6.314366 -1.90234,9.885739 -7.57152,14.214484 -8.29122,6.330816 -14.91699,7.480192 -30.92848,5.365183 -1.84346,-0.243508 -1.99139,0.283715 -1.88994,6.735814 0.14681,9.336931 2.66945,14.75535 10.34446,22.21908 7.95663,7.73758 15.74827,11.06869 27.90942,11.93191 5.04637,0.3582 11.48189,0.14581 15.1998,-0.50163 12.74329,-2.21915 29.24959,-10.84532 40.3129,-21.06747 C 292.5088,99.111852 297.38607,92.775 301.21502,87 c 3.82896,-5.775 7.53973,-11.175 8.24617,-12 0.70643,-0.825 1.84942,-3.975 2.53997,-7 3.42856,-15.01902 12.42819,-25.35806 24.84097,-28.538068 5.32694,-1.364699 7.33292,-1.417739 13.85113,-0.366239 6.55042,1.056697 8.47863,1.874544 13.7144,5.816939 7.72847,5.81933 10.59606,11.116461 10.58296,19.549258 -0.008,4.846381 -0.5916,7.053226 -2.95928,11.181379 -4.17723,7.283203 -8.74097,9.879588 -16.96485,9.651583 -7.65056,-0.21211 -10.48274,-1.917238 -13.96662,-8.408681 -2.8219,-5.258004 -2.39729,-10.266305 1.2277,-14.480604 2.86556,-3.331418 10.49798,-4.525614 12.61572,-1.9739 1.1932,1.437718 0.9056,2.064733 -2.28933,4.991177 -4.32663,3.963037 -4.61733,6.674211 -1.0191,9.504576 3.3232,2.614031 7.92233,2.639937 12.14007,0.06838 C 367.505,72.721579 369,69.575448 369,64 c 0,-5.212351 -1.49552,-8.836773 -5.31133,-12.872112 -11.80874,-12.488102 -34.74985,-7.781097 -43.18259,8.860105 -4.74727,9.368301 -5.3053,22.779987 -1.50453,36.160393 1.24503,4.383064 12.36853,16.088274 19.06111,20.057914 10.00039,5.93163 35.66626,12.42847 43.04609,10.89632 2.01077,-0.41746 3.43854,-1.67765 4.64692,-4.10147 3.04705,-6.11191 10.57359,-7.60977 14.79563,-2.94447 0.96727,1.06883 2.84175,1.94332 4.1655,1.94332 2.85758,0 17.71153,-7.76163 24.7832,-12.94996 2.75,-2.01762 6.60029,-4.83564 8.55619,-6.26228 8.01216,-5.844078 19.76251,-19.374766 29.31697,-33.758893 7.94307,-11.958191 7.73524,-13.903112 -0.69741,-6.526434 -3.25703,2.84917 -8.08979,5.66292 -13.16136,7.662861 -6.90318,2.722229 -9.33158,3.172511 -17.51439,3.247568 -8.67976,0.07961 -10.00811,-0.172473 -15.38495,-2.91967 C 413.61939,66.918885 411,62.893176 411,55.715942 c 0,-6.280748 2.26955,-10.512793 6.61044,-12.326532 4.47375,-1.869254 5.38627,-1.207429 5.4043,3.919607 0.0216,6.135413 1.82527,8.85669 7.91457,11.940983 5.96767,3.022682 15.45234,3.764835 20.77364,1.625488 13.55673,-5.450275 23.0319,-12.539441 27.99934,-20.948656 3.38394,-5.728545 9.93937,-4.624094 9.00752,1.517576 -0.25499,1.680575 -2.10197,6.71479 -4.10439,11.187142 -2.00243,4.472353 -4.54675,12.122353 -5.65405,17 -1.10731,4.877648 -2.75247,12.01845 -3.65592,15.86845 -0.90345,3.85 -1.67702,11.5 -1.71904,17 -0.0936,12.25092 1.97819,17.86812 7.73347,20.96755 2.00222,1.07826 3.8458,2.49577 4.09686,3.15001 2.24849,5.85948 -8.4282,11.15679 -15.40674,7.64416 z M 223.29999,74.157403 c 3.94167,-1.74845 5.1602,-2.943504 6.81441,-6.683116 1.71808,-3.884017 1.84342,-5.07207 0.85199,-8.076127 -2.94436,-8.921511 -19.78508,-6.642181 -28.24331,3.822632 -9.16132,11.334683 -7.69545,14.037545 7.27692,13.417693 5.8835,-0.243575 9.97755,-1.00731 13.29999,-2.481082 z M 559.25,133.50913 c -3.84504,-1.67121 -4.11305,-3.80203 -1.60328,-12.7468 2.0902,-7.44939 1.1824,-8.71136 -4.60166,-6.39704 C 544.61993,117.73636 538,116.074 538,110.58726 c 0,-6.21338 6.23377,-8.22477 14.08852,-4.5458 6.26433,2.93406 7.82204,1.94108 6.07938,-3.87538 -1.51397,-5.053187 -1.497,-12.436982 0.0321,-13.96608 1.36252,-1.362517 5.66904,-1.569857 7.56827,-0.364378 2.64058,1.676028 3.09336,6.622115 1.11935,12.227528 -1.03819,2.94804 -1.88762,5.77337 -1.88762,6.27852 0,0.52282 2.04607,0.63054 4.75,0.25008 13.11563,-1.84546 13.84731,-1.85158 15.56876,-0.13014 2.63659,2.6366 2.18237,8.16393 -0.83327,10.13986 -2.38111,1.56016 -2.90673,1.50833 -9.90737,-0.97695 C 570.51205,114.18103 566.87131,113 566.48759,113 c -0.38371,0 -0.45345,1.6875 -0.15496,3.75 2.01715,13.93831 2.01954,13.84399 -0.40785,16.10545 -2.68286,2.49946 -2.47495,2.4791 -6.67478,0.65368 z m 82.75,0.83191 c -3.03675,-1.21878 -5,-3.72181 -5,-6.37471 0,-2.08757 0.70538,-3.01587 3.02025,-3.97472 4.88025,-2.02146 7.59943,-6.18454 9.43835,-14.45013 2.33688,-10.503822 0.99409,-20.282166 -6.05753,-44.111428 C 640.32007,55.018524 637.73192,44.475 637.64962,42 c -0.13023,-3.916893 0.13265,-4.540191 2.02876,-4.810165 1.64711,-0.234522 3.5075,1.301192 7.62822,6.296928 10.85797,13.163632 29.21795,20.888589 41.65715,17.52724 C 695.15912,59.339877 701,53.416994 701,48.808777 c 0,-7.524715 5.61711,-8.96398 10.14843,-2.600321 2.7341,3.839687 3.00285,11.66453 0.5627,16.383266 -3.62765,7.015094 -13.19674,10.881803 -25.08622,10.13692 -9.60569,-0.601802 -22.22585,-5.519292 -28.96192,-11.285117 -2.27255,-1.945218 -4.27577,-3.10518 -4.4516,-2.577694 -0.30683,0.920497 7.39631,14.496513 12.95203,22.826637 4.97222,7.455245 24.80979,24.936532 36.14475,31.851512 12.69914,7.74721 15.3614,8.49953 19.4308,5.49089 2.10763,-1.55824 4.04097,-2.08398 6.82061,-1.85476 3.29682,0.27186 4.30661,0.95796 6.72592,4.56989 l 2.84669,4.25 8.86853,0 c 27.93566,0 48.33234,-12.20392 57.13246,-34.183983 2.898,-7.238356 3.30044,-9.316439 3.10547,-16.036002 -0.27615,-9.517564 -2.61027,-15.990042 -8.12482,-22.529965 -6.1958,-7.347854 -11.65852,-9.7472 -22.19557,-9.748771 -7.83355,-0.0012 -8.94552,0.250598 -12.75436,2.887745 -10.70367,7.41096 -12.97381,22.02831 -4.55991,29.360976 3.87925,3.380742 7.21107,4.03121 11.77011,2.297868 5.77132,-2.194252 5.86735,-9.213383 0.15869,-11.598614 -4.80642,-2.008251 -5.29263,-3.398915 -2.13727,-6.113043 3.15361,-2.712623 5.56642,-2.924372 9.59344,-0.841922 4.33066,2.239471 6.01152,5.311204 6.0073,10.978217 -0.0109,14.714721 -17.82941,21.636977 -29.44448,11.438815 -7.51609,-6.599218 -9.36657,-20.901171 -3.99858,-30.90423 2.58516,-4.817358 3.79348,-5.921757 9.84598,-8.999174 6.38838,-3.2482 7.57297,-3.507917 16,-3.507917 7.76508,0 9.93377,0.390472 14.77597,2.660407 12.00448,5.627489 19.69066,15.977809 20.57251,27.703259 0.31303,4.162142 1.12937,7.381984 2.18961,8.636334 0.92977,1.1 2.78675,4.21514 4.12661,6.922534 1.47574,2.981947 6.7726,9.311819 13.43612,16.056486 9.38318,9.49745 12.24936,11.75236 19.5,15.34123 11.07614,5.48239 21.96398,8.18374 32.90996,8.1652 17.29175,-0.0293 30.10966,-7.6242 39.24333,-23.25254 3.35047,-5.732874 3.90842,-7.490432 3.6508,-11.500003 L 927.5,84.5 l -11,-0.09109 c -13.84197,-0.11463 -18.62297,-1.548357 -24.64325,-7.390028 -8.32746,-8.080401 -8.29907,-16.605414 0.075,-22.518877 3.76463,-2.658442 5.06349,-3 11.40828,-3 5.976,0 7.91854,0.445952 11.74736,2.69686 4.83539,2.842651 11.24266,10.432145 14.81888,17.55314 1.17391,2.3375 2.50325,4.25 2.95409,4.25 0.45084,0 4.3792,-0.962838 8.72968,-2.139639 11.33483,-3.066063 30.9595,-3.156274 37.40996,-0.171966 5.43268,2.513432 9.33606,6.476181 11.51341,11.688532 5.2319,12.524674 -8.58788,24.764778 -19.58981,17.350568 -5.23843,-3.530173 -6.57262,-6.617899 -5.05225,-11.692435 1.00523,-3.35517 1.9737,-4.490196 4.86042,-5.696345 2.71803,-1.135668 4.17872,-1.244897 5.93664,-0.443938 2.69853,1.229536 3.16005,5.172773 0.83159,7.105223 -2.09388,1.737764 -1.86932,3.731977 0.56706,5.035888 1.60648,0.859763 2.60562,0.753375 4.48412,-0.477466 2.89553,-1.897222 3.90649,-5.305289 3.00276,-10.122611 -0.52537,-2.800442 -1.63296,-4.164152 -5.23994,-6.451629 -6.10442,-3.871311 -11.60629,-4.543207 -25.13237,-3.069199 -17.66974,1.925566 -24.41808,4.699306 -22.64904,9.309339 0.88977,2.318706 -2.46165,15.978913 -4.9707,20.260273 -4.31709,7.36657 -12.55058,14.91243 -20.61877,18.8968 -10.04878,4.96245 -18.18553,6.3066 -30.15096,4.98076 -21.90897,-2.42763 -47.93952,-19.09096 -60.32964,-38.619741 -1.62939,-2.568164 -3.29145,-4.68582 -3.69347,-4.705902 -0.40202,-0.02008 -0.99572,1.200988 -1.31933,2.713488 -0.3236,1.5125 -1.74011,5.579677 -3.14779,9.038171 -4.39189,10.790354 -18.12219,22.979044 -32.61642,28.954354 -5.24584,2.16261 -8.844,2.72243 -23.68551,3.68511 -9.691,0.6286 -18.47468,1.6789 -19.68426,2.35374 -3.71061,2.07019 -9.11858,1.50668 -11.86119,-1.23593 -1.35,-1.35 -2.45455,-2.91641 -2.45455,-3.48094 0,-0.56451 -1.2375,-1.32505 -2.75,-1.69007 -8.92683,-2.15435 -22.77763,-11.25138 -36.25,-23.80852 -6.92191,-6.451687 -9.62659,-9.571555 -19.80896,-22.849756 -2.01766,-2.631113 -3.82315,-4.319831 -4.01219,-3.752707 -0.18904,0.567124 0.5746,3.844853 1.69698,7.283841 1.12238,3.438989 2.77153,10.242643 3.66478,15.119232 2.75368,15.03339 -0.75554,31.19978 -7.33149,33.77497 -3.46081,1.35527 -9.27167,1.97712 -11.20912,1.19954 z M 923.66617,77.936821 c 2.27908,-0.866505 2.52058,-1.398568 2.02394,-4.459042 -0.70867,-4.367001 -5.59787,-11.231433 -10.25703,-14.400852 -3.66574,-2.49364 -12.10113,-3.879025 -16.65679,-2.735627 -6.5398,1.641386 -8.49627,7.826098 -4.64397,14.680338 4.1241,7.337849 19.16146,10.85876 29.53385,6.915183 z M 621,125.2985 c -2.475,-0.84898 -8.775,-3.14356 -14,-5.09906 -5.225,-1.9555 -11.3,-3.81285 -13.5,-4.12745 -3.73307,-0.53382 -4.01992,-0.80897 -4.29851,-4.1231 -0.20647,-2.45628 0.25599,-4.02517 1.5,-5.08873 1.54862,-1.32397 26.6394,-9.823172 33.00203,-11.179044 1.21194,-0.258263 2.96611,0.08804 3.89815,0.76957 1.58679,1.160287 1.57718,1.437957 -0.15095,4.363464 -1.01507,1.71837 -1.64424,3.30155 -1.39815,3.51818 0.24609,0.21662 2.47243,1.05547 4.94743,1.8641 3.67817,1.20173 4.5,1.9094 4.5,3.87493 0,1.99458 -0.89537,2.72655 -5.25,4.29193 -2.8875,1.03798 -5.25,2.29909 -5.25,2.80247 0,0.50337 0.97072,2.22819 2.15715,3.83292 1.78895,2.41969 1.93874,3.18086 0.87755,4.45951 -1.50249,1.81039 -1.27647,1.81552 -7.0347,-0.15969 z m -123.25,0.12114 c -1.30999,-1.31518 -0.80818,-5.18334 0.75,-5.78127 2.72757,-1.04666 1.56454,-2.4562 -3.38239,-4.09931 -2.68532,-0.89192 -5.69274,-2.51709 -6.68316,-3.61149 -1.62428,-1.79481 -1.64929,-2.1413 -0.25519,-3.5354 0.85007,-0.85007 3.41846,-1.79678 5.70754,-2.10381 2.28908,-0.30703 4.40824,-0.95673 4.70925,-1.44377 0.30101,-0.48704 -0.60996,-2.26085 -2.02438,-3.94179 -3.00576,-3.572142 -3.1543,-4.477366 -0.93815,-5.717581 1.15609,-0.646985 6.95481,0.899921 19.84071,5.292851 10.01396,3.41386 18.72888,6.52943 19.36649,6.92349 1.54033,0.95198 1.48158,5.08741 -0.0907,6.38572 -1.84851,1.52637 -28.37506,11.12938 -32.60751,11.8044 -2.00337,0.31951 -3.97999,0.2421 -4.39249,-0.17204 z M 538.49204,94.320746 C 535.74642,92.847156 527.2,88.385393 519.5,84.405716 505.90191,77.377665 503.0062,74.878471 506.15161,72.88514 c 0.74161,-0.469983 2.81089,-0.861405 4.59839,-0.869827 1.7875,-0.0084 3.25,-0.442754 3.25,-0.965181 0,-0.522427 -1.35,-2.950188 -3,-5.395025 -5.76653,-8.544375 -3.20738,-11.656156 5.53052,-6.724791 5.82407,3.286901 7.46948,3.274769 7.46948,-0.05507 0,-3.100689 1.84991,-5.870066 3.49854,-5.237428 0.80742,0.309835 4.1132,5.805578 7.34618,12.212761 3.23298,6.40718 7.73479,15.249421 10.00401,19.649421 4.58923,8.898469 4.85301,10.016738 2.56948,10.893011 -2.58814,0.993164 -3.69214,0.736864 -8.92617,-2.072265 z M 576.88485,95.75 c -0.28588,-3.103189 0.56498,-5.588024 4.33792,-12.66845 7.34291,-13.779924 13.86246,-25.023923 15.40237,-26.563835 C 599.127,54.015857 601,54.663902 601,58.031385 c 0,4.196945 2.11688,4.63319 7.60315,1.566854 C 611.15997,58.169207 613.87023,57 614.62595,57 c 2.77506,0 0.67205,7.602915 -3.38266,12.229151 -1.26008,1.437697 -1.28189,1.793939 -0.12941,2.113531 6.33065,1.75553 7.41027,2.365556 7.69528,4.348127 0.25337,1.76248 -0.82937,2.696909 -6,5.178169 -3.47004,1.665185 -11.83682,5.975876 -18.59285,9.579315 C 582.35927,96.772438 577.1265,98.373147 576.88485,95.75 Z M 559.15459,82.25 C 557.51427,79.115434 548,49.790325 548,47.869053 c 0,-2.295264 3.60299,-2.483912 6.44113,-0.33725 C 555.50875,48.339312 556.68695,49 557.05935,49 c 0.37241,0 1.42235,-2.656058 2.33321,-5.902351 2.40981,-8.588493 5.6943,-9.116898 7.47262,-1.202187 1.32597,5.901481 2.19778,6.572832 6.51034,5.01339 1.96582,-0.710849 3.88619,-0.980479 4.26749,-0.599179 1.12026,1.12026 -5.20527,23.033544 -9.50861,32.940327 -1.8039,4.152773 -2.44057,4.75 -5.06368,4.75 -1.84194,0 -3.35393,-0.675658 -3.91613,-1.75 z M 422,32.724791 C 421.725,32.450713 354.9,31.945414 273.5,31.601905 105.12868,30.891375 75.683134,30.525514 68.11351,29.04998 65.150941,28.472491 60.854872,28 58.566691,28 52.427217,28 36.503368,24.287834 28.851164,21.072718 20.393791,17.519308 9.7997616,10.472364 4.041792,4.5700045 L -0.41641595,0 2.7623574,0 C 5.0846973,0 8.0370862,1.5754168 13.720565,5.8473818 24.892071,14.2444 29.382314,16.325246 44.5,20.111035 c 9.28565,2.325323 42.886016,3.872849 88,4.053001 140.5916,0.561419 249.83509,0.73554 510.5,0.813674 186.74111,0.05598 319.65774,0.503798 345.5,1.16406 23.1,0.590197 55.05,1.108594 71,1.151993 l 29,0.07891 6.5,-3.05769 c 3.575,-1.68173 9.6245,-4.482633 13.4433,-6.22423 8.0398,-3.666656 14.3056,-8.5043713 18.266,-14.1029918 2.0964,-2.9635582 3.4836,-3.95036743 5.5759,-3.96640679 2.5776,-0.01976017 2.6961,0.1463324 1.5896,2.22864859 -0.6576,1.2375 -4.1609,5.3556455 -7.7852,9.151435 -5.6203,5.886299 -8.2076,7.674576 -17.5896,12.15767 -17.603,8.411416 -18.4294,8.554653 -50.235,8.707589 -15.2707,0.07343 -160.29,0.0346 -322.265,-0.08629 -161.975,-0.120887 -298.775,0.06427 -304,0.411456 -5.225,0.347188 -9.725,0.407005 -10,0.132927 z"
     id="path11913"
     inkscape:connector-curvature="0" />
</svg>
