<?xml version="1.0" standalone="no"?>
<!DOCTYPE svg PUBLIC "-//W3C//DTD SVG 20010904//EN"
 "http://www.w3.org/TR/2001/REC-SVG-20010904/DTD/svg10.dtd">
<svg version="1.0" xmlns="http://www.w3.org/2000/svg"
 width="776.000000pt" height="1280.000000pt" viewBox="0 0 776.000000 1280.000000"
 preserveAspectRatio="xMidYMid meet">
<metadata>
Created by potrace 1.15, written by Peter Selinger 2001-2017
</metadata>
<g transform="translate(0.000000,1280.000000) scale(0.100000,-0.100000)"
fill="white" stroke="none">
<path d="M6075 9209 c-219 -29 -470 -166 -674 -369 -358 -355 -653 -976 -825
-1740 -171 -758 -194 -1234 -81 -1680 29 -116 60 -203 136 -383 81 -189 113
-284 143 -420 52 -231 76 -500 76 -853 0 -134 4 -253 9 -267 7 -18 21 -26 68
-36 103 -22 969 -238 1248 -311 149 -39 325 -84 392 -101 l122 -31 35 28 c130
108 291 376 425 706 296 731 575 1995 607 2748 6 141 -15 579 -41 840 -85 860
-310 1390 -710 1672 -123 87 -264 146 -436 184 -89 19 -391 27 -494 13z"/>
<path d="M4638 2728 c-265 -421 -423 -822 -484 -1223 -21 -144 -22 -407 -1
-535 68 -406 268 -714 563 -867 44 -23 120 -54 169 -69 79 -24 107 -27 230
-28 144 0 199 9 323 54 239 88 480 302 650 576 237 382 385 888 446 1529 l6
60 -172 53 c-95 29 -337 103 -538 163 -561 169 -739 224 -946 294 -105 36
-193 65 -196 65 -2 0 -25 -33 -50 -72z"/>
</g>
</svg>
