<?xml version="1.0" encoding="utf-8"?>

<!DOCTYPE svg PUBLIC "-//W3C//DTD SVG 1.1//EN" "http://www.w3.org/Graphics/SVG/1.1/DTD/svg11.dtd">
<svg version="1.1" id="Layer_1" xmlns="http://www.w3.org/2000/svg" xmlns:xlink="http://www.w3.org/1999/xlink" x="0px" y="0px"
	 viewBox="0 0 2000 3000" enable-background="new 0 0 2000 3000" xml:space="preserve">
<g>
	<path d="M1611.924,2824.716c-15.287-1.689-31.676,0.89-47.911-1.791c-3.219-0.531-6.636,0.048-9.956,0.23
		c-4.198,0.23-8.228-0.298-10.231-4.472c-2.011-4.189-0.11-7.855,2.973-10.756c7.523-7.078,14.273-14.861,21.232-22.47
		c13.604-14.875,24.824-31.265,33.247-49.57c4.512-9.805,7.111-19.999,7.033-30.911c-0.357-50.055,4.594-100.674,0.725-150.613
		c-1.65-21.291-1.648-42.586-2.35-63.846c-1.042-31.571-4.061-63.057-3.432-94.721c0.436-21.9-0.776-43.843-1.592-65.754
		c-0.535-14.362-3.174-28.444-7.417-42.187c-0.815-2.639-0.458-6.693-4.72-6.525c-3.132,0.122-4.019,3.267-4.912,5.689
		c-5.871,15.93-11.404,31.973-16.279,48.247c-7.349,24.536-11.556,49.964-21.219,73.846c-5.287,13.066-6.159,27.225-9.383,40.813
		c-5.914,24.926-12.27,49.85-14.807,75.402c-2.893,29.129-8.159,57.934-10.662,87.133c-2.416,28.178-5.032,56.346-7.336,84.538
		c-1.246,15.243-4.207,30.298-4.294,45.694c-0.046,8.067-5.488,12.983-12.654,16.477c-16.917,8.247-27.233,31.667-22.436,49.873
		c1.565,5.939,4.429,11.022,8.703,15.475c5.594,5.827,6.545,12.808,4.316,20.419c-2.057,7.024-6.439,11.735-13.716,12.9
		c-4.565,0.73-9.363,1.111-13.927,0.566c-24.569-2.934-49.194-1.793-73.815-1.6c-7.631,0.06-15.307,0.054-22.889-0.681
		c-13.608-1.321-15.869-6.517-7.627-17.152c7.548-9.739,15.083-19.526,23.242-28.745c13.017-14.708,21.351-32.069,29.341-49.658
		c2.756-6.066,5.445-12.139,8.577-18.03c4.244-7.98,6.915-16.447,8.524-25.431c3.29-18.368,8.564-36.31,14.001-54.12
		c6.74-22.077,10.167-44.739,14.119-67.351c7.618-43.595,13.248-87.54,23.685-130.647c2.798-11.559,2.999-23.722,4.964-35.512
		c3.829-22.967,9.001-45.727,11.565-68.886c2.929-26.462,5.119-53.065,2.511-79.65c-1.656-16.878-4.512-33.66-5.08-50.634
		c-0.378-11.29-1.191-22.595-0.127-33.925c0.401-4.269,0.67-8.892-0.513-12.908c-4.279-14.527-6.259-29.438-6.05-44.375
		c0.279-19.914-5.664-41.778-10.237-60.965c-5.945-24.946-15.07-49.56-22.529-74.103c-10.41-34.25-21.194-68.384-31.642-102.622
		c-5.458-17.887-10.831-35.801-16.008-53.772c-4.222-14.655-5.772-34.188-16.912-45.371c-1.636-1.642-3.643-3.324-4.384-5.382
		c-4.264-11.844-13.657-20.396-19.601-31.148c-3.432-6.208-5.88-7.083-12.158-4.24c-14.558,6.594-29.517,12.54-43.359,20.425
		c-20.583,11.724-42.583,18.616-65.547,23.224c-36.158,7.255-70.363,12.072-107.274,10.981
		c-50.763-1.5-100.512-13.595-151.149-11.16c-11.236,0.548-21.635,13.173-21.568,25.139c0.054,9.621,2.12,19.249,1.938,28.848
		c-0.346,18.274,3.044,36.403,1.628,54.689c-0.229,2.961-0.37,6.081,0.286,8.935c5.477,23.823,2.1,50.79,2.342,75.207
		c0.279,28.114,0.808,56.225,1.586,84.33c0.918,33.147,2.183,66.285,3.795,99.406c0.806,16.561,1.707,33.116,2.678,49.668
		c0.893,15.226,6.552,29.916,3.245,45.155c-9.908,45.651-16.684,94.835-18.06,141.507c-0.534,18.128-0.632,36.269-0.29,54.401
		c0.963,51.118,3.027,103.74,9.713,154.276c0.169,1.317,0.189,2.663,0.161,3.993c-0.535,26.051,3.395,51.759,5.612,77.609
		c0.969,11.294,1.893,22.47,4.341,33.559c2.539,11.503-0.792,21.281-8.449,30.463c-17.397,20.863-17.742,44.453-6.33,65.923
		c3.286,6.183,7.493,11.736,12.377,16.861c11.499,12.069,8.401,32.669-5.768,41.332c-6.997,4.277-14.251,6.305-22.577,6.724
		c-13.91,0.699-27.754,2.783-41.616,4.362c-13.291,1.514-26.617,1.235-39.887,0.221c-5.346-0.409-10.53-0.99-15.835,0.139
		c-3.285,0.699-6.583,0.476-9.809-0.825c-10.35-4.175-12.897-13.434-6.273-22.314c9.342-12.524,18.51-25.178,27.756-37.775
		c4.579-6.239,8.071-13.038,10.056-20.519c2.91-10.968,7.098-21.489,11.2-32.022c4.801-12.332,5.695-24.878,5.457-38.081
		c-0.454-25.258,0.397-50.562,5.828-75.452c1.344-6.159,2.551-12.435,2.907-18.709c5.243-92.405,2.218-185.327-4.707-277.65
		c0.436,5.815-5.293,15.816-6.466,21.95c-1.578,8.255-2.274,16.677-2.068,25.079c0.395,16.146-0.201,31.477-2.597,47.563
		c-6.972,46.815-0.128,93.697-3.814,140.501c-0.339,4.305-1.152,8.799-0.341,12.93c3.947,20.086,0.303,39.798-2.21,59.588
		c-0.462,3.635-1.534,7.294-1.349,10.892c0.602,11.697-4.74,20.844-12.817,28.129c-12.36,11.15-16.214,25.539-17.793,41.086
		c-0.785,7.726,1.248,14.877,7.138,19.968c12.539,10.84,11.722,25.541,11.474,39.672c-0.164,9.38-6.294,14.764-15.56,16.987
		c-1.94,0.465-3.92,1.325-5.841,1.226c-20.693-1.068-41.097,3.809-61.795,2.867c-7.045-0.321-13.91-1.686-20.717-3.038
		c-8.498-1.688-16.849-3.881-25.608-3.736c-1.609,0.027-3.253-0.583-4.841-1.039c-8.915-2.563-10.885-6.745-6.151-14.696
		c6.824-11.46,14.307-22.558,23.945-31.869c8.293-8.011,15.009-16.763,18.636-27.915c1.964-6.039,6.404-10.848,10.385-15.782
		c8.741-10.834,13.406-22.88,15.989-36.917c3.083-16.751,4.262-33.571,6.367-50.348c0.92-7.333,3.902-14.098,6.105-21.063
		c2.134-6.746,2.776-13.514,3.067-20.589c0.738-17.932,2.101-35.857,3.823-53.726c1.914-19.867,3.496-39.743,4.628-59.67
		c1.659-29.219,2.784-58.462,4.605-87.68c2.087-33.483,3.587-67.249-0.822-100.757c-1.558-11.843-4.174-23.576-9.032-34.706
		c-5.405-12.384-3.674-25.627-3.258-38.523c0.58-17.988-0.476-35.966,0.082-53.911c0.541-17.366-3.47-34.666-1.345-51.838
		c2.465-19.928-1.604-39.777,1.175-59.703c1.693-12.138-0.865-24.546-2.182-36.787c-2.384-22.151-5.106-44.272-7.073-66.46
		c-1.465-16.519-6.54-31.915-12.766-47.037c-5.468-13.278-10.473-26.615-11.999-41.073c-0.446-4.226-2.175-8.357-3.602-12.431
		c-10.1-28.833-13.736-59.593-20.512-89.352c-9.768-42.897-21.992-83.546-38.192-124.161c-3.22-8.072-6.534-16.08-11.041-23.477
		c-13.518-22.184-20.962-46.594-26.893-71.606c-0.765-3.228-1.782-6.414-2.92-9.533c-4.926-13.503-5.382-27.273-3.028-41.332
		c3.223-19.251,10.025-36.99,19.697-54.026c7.198-12.679,13.031-26.308,17.921-40.066c3.655-10.282,8.735-19.494,15.279-27.854
		c7.892-10.083,8.717-20.138,3.682-31.704c-4.257-9.778-8.253-19.658-13.888-28.722c-8.127-13.073-13.852-27.306-20.399-41.143
		c-15.536-32.834-34.226-63.827-53.473-94.602c-12.523-20.023-21.719-41.986-27.894-64.949
		c-11.894-44.23-29.516-85.573-36.907-131.357c-4.013-24.861-6.284-50.003-6.773-75.181c-0.816-41.961,1.197-83.901,2.271-125.838
		c1.019-39.754-1.48-79.463-0.478-119.239c1.429-56.78-0.601-112.75-5.316-169.288c-1.298-15.561-3.246-31.073-5.17-46.574
		c-2.343-18.876-5.961-37.599-12.825-55.315c-4.454-11.496-12.86-20.504-22.196-29.028c-11.185-10.212-22.851-15.052-38.195-15.805
		c-21.811-1.07-43.553-4.589-65.29-7.259c-15.392-1.891-30.611-4.813-45.431-10.762c-15.456-6.204-30.813-12.404-45.564-20.12
		c-1.169-0.611-2.502-1.323-3.75-1.305c-17.058,0.24-32.728-8.478-49.874-7.66c-4.332,0.206-8.562,0.532-12.834,1.58
		c-20.26,4.975-37.28-2.454-52.564-14.87c-5.79-4.703-8.661-11.788-10.863-18.829c-1.996-6.381-1.779-12.155,4.277-17.046
		c5.18-4.185,4.955-6.941-0.876-10.932c-8.757-5.994-9.001-15.746-11.664-24.354c-1.226-3.963,1.301-7.864,3.898-10.948
		c7.222-8.575,15.611-15.514,27.165-17.319c7.91-1.236,15.631-2.754,22.833-6.721c9.774-5.379,21.81-3.632,32.473-3.889
		c11.553-0.278,22.89-2.221,34.267-4.29c28.33-5.152,56.598-13.946,82.101-27.331c16.133-8.467,30.249-19.173,42.661-32.436
		c5.703-6.095,12.994-10.433,20.129-14.659c7.636-4.522,16.148-3.356,24.34-1.548c6.247,1.378,11.725,4.665,16.767,8.597
		c2.364,1.844,4.576,3.909,7.063,5.563c11.128,7.401,22.669,11.248,35.403,3.684c1.417-0.841,3.011-1.546,4.614-1.887
		c22.659-4.818,37.9-19.566,50.66-37.673c7.3-10.359,17.886-14.436,29.975-15.377c4.464-0.347,8.816,0.975,12.052,4.005
		c5.346,5.003,10.139,10.626,14.058,16.812c3.71,5.856,2.647,10.141-3.068,14.699c-4.956,3.953-10.301,7.35-15.965,10.23
		c-2.968,1.509-6.025,2.89-8.836,4.658c-22.194,13.959-23.744,23.594-18.142,49.04c0.652,2.961,2.019,5.767,4.263,7.805
		c5.202,4.725,9.327,10.301,13.768,15.687c5.356,6.497,13.952,7.912,21.793,8.604c13.576,1.196,25.923,5.967,38.147,11.199
		c10.639,4.554,11.82,10.476,4.654,19.375c-4.595,5.706-9.184,11.418-13.818,17.092c-3.767,4.612-4.5,9.442-1.564,14.801
		c14.242,25.995,23.097,57.41,33.256,85.301c9.57,26.272,18.42,52.806,26.53,79.565c7.149,23.588,11.906,45.426,16.662,69.742
		c4.616,23.618,9.232,47.236,13.848,70.854c7.162,36.646,14.324,73.292,21.486,109.939c6.403,32.762,10.864,64.769,20.624,96.789
		c6.895,22.623,13.791,45.245,20.686,67.868c6.657,21.841,14.982,38.662,25.768,58.614c15.604,28.865,38.492,51.851,59.659,76.371
		c10.669,12.359,23.17,22.881,35.527,33.548c18.528,15.996,41.295,25.311,61.897,38.128c23.988,14.924,34.974,33.478,51.378,55.418
		c12.059,16.13,25.466,31.251,40.011,45.18c34.193,32.746,73.175,55.383,115.822,75.097c19.047,8.804,38.198,16.606,59.286,20.201
		c24.582,4.191,48.811,11.196,73.744,12.639c27.988,1.62,55.602,5.846,83.368,9.043c0.662,0.076,1.339,0.317,1.984,0.239
		c25.002-3.025,50.652,2.849,74.491,9.941c21.619,6.432,46.636,12.62,63.238,28.794c6.907,6.729,15.816,11.532,21.432,19.395
		c7.599,10.64,16.614,19.923,25.299,29.554c1.115,1.237,1.952,2.844,3.279,3.753c20.92,14.337,33.884,36.499,52.408,53.164
		c9.638,8.672,16.038,19.473,21.519,30.967c1.433,3.005,2.375,6.322,4.212,9.045c16.577,24.576,17.34,53.428,21.838,81.2
		c1.207,7.449,0.063,15.266,0.153,22.912c0.398,33.581,2.933,67.189-0.726,100.722c-2.164,19.835-4.827,39.617-7.377,59.409
		c-0.516,4.001-1.127,8.088-0.143,11.925c2.142,8.349,1.177,16.461-0.306,24.743c-2.24,12.512-1.897,25.279-1.849,37.874
		c0.095,24.958-0.813,49.905-0.672,74.822c0.089,15.66-2.42,31.071-1.829,46.736c0.709,18.769,4.625,36.431,14.695,52.221
		c12.159,19.066,17.21,40.135,19.914,62.137c2.191,17.831,4.716,35.622,7.253,53.408c0.911,6.385,1.654,12.445-3.102,17.952
		c-3.868,4.479-1.918,9.612,0.012,14.203c3.141,7.473,1.928,14.222-1.957,20.994c-1.565,2.728-3.037,5.513-6.422,5.471
		c-3.169-0.039-5.621-1.973-6.828-5.037c-0.704-1.788-0.576-4.618-3.062-4.497c-3.079,0.151-2.589,3.332-3.17,5.448
		c-2.161,7.865-2.432,15.605,0,23.609c2.762,9.092,1.389,10.805-8.171,11.695c-3.165,0.295-4.141,1.653-3.682,4.455
		c0.727,4.435,2.931,8.131,6.112,11.224c8.216,7.988,9.742,17.891,8.022,28.585c-1.637,10.181-3.553,20.319-5.458,30.454
		c-0.488,2.597-0.896,5.413-2.202,7.618c-5.111,8.625-5.452,17.708-3.149,27.071c1.99,8.091,1.333,15.521-2.669,23.111
		c-3.07,5.824-4.678,12.452-6.665,18.807c-3.74,11.963-1.909,17.565,8.509,24.804c5.734,3.985,11.925,7.306,17.838,11.041
		c2.703,1.708,6.94,3.311,5.289,7.211c-1.693,3.998-5.858,1.815-8.946,1.193c-8.307-1.673-15.5-5.805-22.537-10.363
		c-2.363-1.53-5.29-5.38-7.995,0.066c-1.362,2.741-2.649,0.557-3.54-0.543c-2.302-2.843-4.242-6-6.704-8.685
		c-2.21-2.411-4.404-1.789-4.764,1.52c-0.282,2.589,0.148,5.304,0.574,7.913c1.889,11.575,1.234,23.086,0.819,34.781
		c-0.67,18.876-4.064,37.606-1.614,56.765c1.712,13.387,1.49,27.149,1.309,40.833c-0.513,38.934,4.819,77.596,9.538,116.152
		c2.368,19.346,4.65,38.717,5.967,58.168c1.026,15.15,4.087,30.371-9.514,40.967c-10.841,8.447-16.225,19.039-15.635,32.806
		c0.141,3.284-0.502,6.634-1.046,9.91c-1.287,7.742-0.815,15.015,2.886,22.293c4.925,9.686,3.852,20.205,1.68,30.367
		c-1.737,8.127-8.609,10.712-15.911,11.248c-7.626,0.56-15.318,0.231-22.982,0.262
		C1624.87,2824.735,1618.878,2824.716,1611.924,2824.716z M1678.059,1693.306c-0.627-7.919-1.315-17.876-2.273-27.807
		c-0.232-2.406,1.147-6.511-2.131-6.773c-3.096-0.247-2.7,3.85-3.315,6.323c-6.098,24.527-8.646,49.806-15.704,74.127
		c-2.131,7.344-3.462,15.087-6.703,21.913c-11.746,24.733-19.471,50.92-28.619,76.589c-1.894,5.315-1.915,11.028-2.47,16.666
		c-1.652,16.797,1.666,33.101,3.444,49.577c0.398,3.692,1.198,7.197,2.539,10.633c4.017,10.292,5.733,21.092,7.755,31.91
		c2.552,13.653,4.984,27.502,11.665,40.037c3.29,6.173,5.888,12.656,8.532,19.133c1.238,3.034,1.206,8.87,5.658,8.014
		c3.981-0.766,2.892-6.131,2.918-9.641c0.122-16.495,5.121-31.561,14.078-45.137c5.499-8.335,7.546-17.074,5.834-26.557
		c-1.938-10.734-0.135-21.282,0.849-31.815c1.859-19.907,3.913-39.927,1.273-59.718c-2.783-20.871-1.585-41.789-3.103-62.651
		c-1.301-17.894-0.316-35.943-0.988-53.899C1676.936,1714.534,1678.846,1704.989,1678.059,1693.306z"/>
</g>
</svg>
