<?xml version="1.0" encoding="UTF-8"?>
<svg xmlns="http://www.w3.org/2000/svg" xmlns:xlink="http://www.w3.org/1999/xlink" width="340pt" height="187pt" viewBox="0 0 340 187" version="1.1">
<g id="surface1">
<path style=" stroke:none;fill-rule:nonzero;fill:rgb(100%,100%,100%);fill-opacity:1;" d="M 96.714844 105.253906 C 110.824219 93.75 88.800781 82.90625 80.914062 83.085938 C 52.5 83.730469 40.84375 74.75 47.945312 68.710938 C 55.046875 62.675781 65.105469 53.25 73.011719 38.75 C 83.777344 19.011719 97.035156 7.710938 117.257812 -2.421875 C 139.128906 -13.378906 168.695312 0.0390625 181.253906 12.621094 C 187.722656 19.105469 188.710938 31.0625 197.84375 37.164062 C 201.132812 39.363281 208.105469 39.140625 212.066406 41.125 C 222.496094 46.351562 237.839844 69.027344 243.667969 80.710938 C 246.066406 85.519531 243.511719 96.390625 246.828125 99.710938 C 254.167969 107.066406 301.734375 120.6875 317.933594 136.925781 C 322.324219 141.324219 343.632812 144.882812 346.378906 150.382812 C 349.683594 157.011719 340.316406 159.867188 332.433594 165.871094 C 324.554688 171.878906 310.261719 174.699219 306.875 178.09375 C 297.78125 187.207031 284.535156 188.441406 272.109375 191.554688 C 256.648438 195.425781 255.628906 182.957031 235.679688 182.980469 C 220.507812 182.996094 197.386719 176.511719 182.042969 176.511719 C 169.269531 176.511719 142.375 171.84375 131.476562 177.300781 C 104.277344 190.933594 55.199219 210.910156 30.347656 186.011719 C 19.964844 175.605469 -5.109375 183.820312 -13.105469 167.800781 C -16.78125 160.429688 5.578125 164.113281 13.625 149.492188 C 21.714844 134.792969 48.597656 138.351562 50.890625 133.757812 C 60.71875 114.058594 57.898438 109.730469 96.714844 105.253906 Z M 96.714844 105.253906 "/>
<path style=" stroke:none;fill-rule:nonzero;fill:rgb(100%,100%,0.392157%);fill-opacity:1;" d="M 116.125 5.082031 C 122.699219 1.882812 130.128906 0.605469 137.402344 0.6875 C 138.988281 0.566406 140.339844 1.589844 141.894531 1.664062 C 153.914062 1.679688 165.175781 7.679688 173.851562 15.6875 C 181.90625 22.945312 187.152344 33.050781 188.960938 43.707031 C 189.308594 46.304688 190.292969 49.117188 188.796875 51.523438 C 190.011719 56.144531 188.296875 60.8125 186.59375 65.070312 C 181.785156 76.148438 172.746094 84.597656 163.660156 92.207031 C 161.25 91.417969 159.25 92.957031 157.28125 94.082031 C 154.15625 94.847656 151.023438 95.648438 147.859375 96.292969 C 148.183594 95.15625 148.703125 94.074219 148.878906 92.902344 C 148.402344 84.269531 145.738281 75.785156 141.214844 68.421875 C 146.757812 67.742188 151.4375 64.097656 154.894531 59.914062 C 156.398438 56.796875 158.292969 53.488281 157.9375 49.90625 C 155.226562 43.535156 149.253906 38.625 142.445312 37.324219 C 142.273438 36.5 142.113281 35.683594 141.980469 34.851562 C 137.480469 33.980469 132.851562 33.941406 128.339844 34.714844 C 128.835938 34.222656 129.34375 33.730469 129.847656 33.246094 C 129.800781 32.664062 129.703125 31.507812 129.660156 30.925781 C 127.136719 30.023438 124.457031 30.78125 121.980469 31.460938 C 122.078125 30.3125 121.179688 29.375 120.050781 29.289062 C 118.148438 29.117188 116.523438 30.335938 114.808594 30.960938 C 116.351562 29.746094 118.050781 28.730469 119.484375 27.371094 C 113.707031 26.871094 108.742188 30.320312 104.574219 33.890625 C 104.574219 33.511719 104.558594 32.761719 104.550781 32.390625 C 103.480469 32.613281 102.414062 32.859375 101.359375 33.132812 C 101.289062 32.839844 101.148438 32.25 101.078125 31.953125 C 99.59375 32.4375 98.050781 32.726562 96.496094 32.792969 C 97.636719 30.113281 100.195312 27.542969 99.273438 24.433594 C 99.707031 23.828125 100.144531 23.222656 100.582031 22.617188 C 100.996094 22.558594 101.828125 22.445312 102.242188 22.390625 C 102.4375 21.402344 102.6875 20.371094 103.628906 19.828125 C 107.683594 16.582031 112.328125 14.191406 116.917969 11.816406 C 116.101562 10.355469 114.539062 10.910156 113.234375 11.058594 C 115.339844 10.347656 117.558594 9.757812 119.292969 8.289062 C 117.113281 6.050781 114.71875 8.214844 112.554688 9.125 C 113.882812 7.90625 114.96875 6.460938 116.125 5.082031 Z M 116.125 5.082031 "/>
<path style=" stroke:none;fill-rule:nonzero;fill:rgb(100%,100%,0.392157%);fill-opacity:1;" d="M 105.148438 83.082031 C 109.59375 85.101562 113.226562 88.808594 115.347656 93.199219 C 115.367188 93.703125 115.421875 94.71875 115.453125 95.230469 C 114.230469 94.265625 113.15625 93.03125 111.707031 92.402344 C 110.425781 92.480469 109.214844 92.957031 107.972656 93.21875 C 108.085938 91.722656 108.929688 90.042969 108.007812 88.644531 C 107.109375 88.3125 106.613281 89.195312 105.964844 89.589844 C 104.972656 89.1875 103.96875 88.816406 102.949219 88.5 C 103.644531 86.683594 104.371094 84.875 105.148438 83.082031 Z M 105.148438 83.082031 "/>
<path style=" stroke:none;fill-rule:nonzero;fill:rgb(2.352941%,41.176471%,62.745098%);fill-opacity:1;" d="M 74.078125 48.703125 C 80.570312 45.417969 87.945312 44.132812 95.175781 44.085938 C 97.003906 43.898438 98.59375 45.019531 100.390625 45.039062 C 112.320312 45.140625 123.492188 51.03125 132.113281 58.980469 C 141.714844 67.605469 147.347656 80.238281 148.046875 93.078125 C 147.679688 94.007812 146.914062 94.96875 147.316406 96.027344 C 148.238281 99.640625 146.773438 103.273438 145.707031 106.691406 C 141.117188 118.613281 131.613281 127.785156 121.890625 135.652344 C 119.414062 134.863281 117.503906 136.496094 115.453125 137.578125 C 106.9375 139.328125 98.421875 142.835938 89.597656 141.144531 C 89.867188 141.632812 90.425781 142.601562 90.707031 143.09375 C 88.496094 142.933594 86.277344 143.148438 84.070312 143.285156 C 83.914062 143.496094 83.582031 143.925781 83.414062 144.144531 C 81.761719 143.277344 79.957031 142.753906 78.078125 142.753906 C 77.632812 141.285156 77.21875 139.386719 75.390625 139.144531 C 73.09375 138.625 71.828125 136.179688 69.523438 135.773438 C 68.550781 136.058594 67.609375 136.453125 66.632812 136.738281 C 66.113281 135.160156 67.863281 132.464844 65.628906 131.84375 C 65.371094 132.148438 64.867188 132.738281 64.617188 133.039062 C 63.484375 132.617188 62.339844 132.246094 61.175781 131.9375 C 62.097656 129.839844 63.152344 127.796875 63.832031 125.613281 C 63.691406 123.941406 61.507812 125.21875 60.496094 125.339844 C 62.164062 122.707031 64.269531 119.476562 67.910156 120.152344 C 71.078125 117.84375 74.113281 115.082031 77.804688 113.691406 C 85.082031 113.613281 92.753906 115.203125 99.644531 111.980469 C 104.128906 111.132812 108.144531 108.71875 111.324219 105.476562 C 114.085938 103.105469 115.128906 99.460938 116.214844 96.117188 C 117 93.71875 115.582031 91.441406 114.238281 89.582031 C 111.074219 85.082031 106.175781 81.632812 100.6875 80.804688 C 100.800781 79.890625 100.640625 79.019531 100.226562 78.195312 C 95.808594 77.460938 91.257812 77.183594 86.863281 78.210938 C 87.429688 77.578125 87.980469 76.933594 88.546875 76.304688 C 88.292969 75.535156 88.042969 74.761719 87.800781 73.992188 C 85.324219 73.808594 82.855469 74.121094 80.464844 74.746094 C 79.714844 71.546875 75.804688 72.523438 74.152344 74.355469 C 74.03125 74.589844 73.804688 75.050781 73.691406 75.277344 L 73.351562 75.335938 C 73.011719 75.171875 72.339844 74.824219 72 74.65625 C 72.753906 74.15625 73.3125 72.515625 74.386719 73.242188 C 75.519531 72.507812 77.171875 72.09375 77.578125 70.640625 C 72.144531 70.503906 67.5 73.550781 63.449219 76.8125 C 62.460938 75.472656 61.011719 76.039062 59.765625 76.5625 L 59.558594 75.421875 C 58.035156 75.796875 56.472656 76.027344 54.910156 76.214844 C 56.894531 73.105469 57.976562 69.609375 59.023438 66.125 C 59.394531 66.039062 60.148438 65.867188 60.519531 65.773438 C 60.851562 63.445312 63.183594 62.417969 64.867188 61.144531 C 68.015625 58.90625 71.632812 57.417969 74.816406 55.261719 L 75.109375 54.359375 C 74.210938 54.269531 73.3125 54.195312 72.410156 54.117188 C 74.296875 53.632812 76.078125 52.855469 77.761719 51.886719 C 75.699219 49.503906 72.996094 51.441406 70.996094 52.800781 C 71.925781 51.347656 73.390625 50.3125 74.078125 48.703125 Z M 74.078125 48.703125 "/>
<path style=" stroke:none;fill-rule:nonzero;fill:rgb(2.352941%,41.176471%,62.745098%);fill-opacity:1;" d="M 190.214844 45.496094 C 202.703125 45.765625 214.335938 52.257812 222.941406 61.03125 C 231.355469 69.179688 235.855469 80.722656 236.867188 92.273438 C 234.980469 94.875 237.15625 97.894531 236.039062 100.714844 C 232.988281 114.9375 221.996094 125.582031 211.1875 134.464844 C 208.039062 133.328125 206.03125 136.613281 203.101562 136.851562 C 195.402344 138.410156 187.664062 141.582031 179.691406 139.976562 C 179.351562 140.597656 179.019531 141.21875 178.695312 141.839844 C 176.792969 142.082031 174.890625 142.035156 173.035156 141.566406 C 172.847656 141.792969 172.46875 142.246094 172.28125 142.472656 C 171.027344 141.996094 169.71875 141.695312 168.398438 141.484375 C 167.855469 140.097656 167.246094 138.488281 165.613281 138.117188 C 162.601562 137.398438 160.511719 133.207031 157.113281 135.175781 C 157.089844 133.859375 157.429688 132.4375 156.765625 131.226562 C 155.769531 130.644531 154.5625 130.863281 153.65625 131.484375 C 153.25 131.332031 152.433594 131.035156 152.035156 130.886719 C 152.878906 128.886719 153.703125 126.875 154.59375 124.894531 C 153.800781 124.363281 153.007812 123.828125 152.246094 123.265625 C 153.40625 121.132812 155.679688 120.566406 157.9375 120.484375 C 161.046875 118.238281 163.96875 115.605469 167.53125 114.082031 C 174.753906 114.144531 182.394531 115.550781 189.234375 112.457031 C 195.152344 111.367188 200.421875 107.675781 203.917969 102.835938 C 205.222656 99.550781 207.441406 96.109375 206.582031 92.449219 C 203.992188 86.554688 198.722656 81.894531 192.5625 80.019531 C 191.226562 79.6875 190.925781 78.136719 190.09375 77.214844 C 187.160156 76.28125 184.011719 76.417969 180.96875 76.394531 C 185.535156 70.148438 189.371094 63.050781 190.15625 55.238281 C 190.066406 53.542969 189.289062 51.734375 190.441406 50.214844 C 190.546875 48.632812 190.292969 47.058594 190.214844 45.496094 Z M 190.214844 45.496094 "/>
<path style=" stroke:none;fill-rule:nonzero;fill:rgb(0.392157%,54.509804%,30.196078%);fill-opacity:1;" d="M 172.136719 109.566406 C 173.117188 105.308594 176.914062 102.183594 181.238281 101.867188 C 187.484375 101.414062 193.898438 102.109375 199.871094 103.925781 C 197.355469 105.988281 194.796875 108.183594 191.65625 109.210938 C 191.355469 109.089844 190.746094 108.832031 190.441406 108.707031 C 186.699219 111.496094 181.867188 112.238281 177.308594 111.921875 C 175.496094 111.359375 173.859375 110.347656 172.136719 109.566406 Z M 172.136719 109.566406 "/>
<path style=" stroke:none;fill-rule:nonzero;fill:rgb(0.392157%,54.509804%,30.196078%);fill-opacity:1;" d="M 234.84375 112.046875 C 242.289062 113.789062 249.84375 114.992188 257.445312 115.742188 C 266.933594 116.90625 273.222656 126.460938 283.042969 126.285156 C 289.703125 126.710938 296.910156 128.433594 301.46875 133.691406 C 303.9375 136.511719 306.429688 139.394531 309.617188 141.4375 C 316.234375 145.800781 324.164062 147.277344 331.695312 149.3125 C 334.464844 150.136719 337.425781 150.773438 339.699219 152.695312 L 339.699219 153.511719 C 335.902344 155.816406 331.921875 157.792969 328.089844 160.039062 C 320.621094 164.117188 313.277344 168.730469 304.949219 170.839844 C 300.820312 172.058594 296.535156 172.550781 292.34375 173.480469 C 287.015625 175.207031 285.445312 182.023438 280.023438 183.601562 C 270.730469 183.511719 262.027344 179.632812 252.878906 178.527344 C 232.828125 176.816406 213.050781 172.9375 193.121094 170.28125 C 182.917969 168.90625 172.589844 168.867188 162.316406 169.261719 C 156.964844 169.410156 151.769531 170.960938 146.425781 171.136719 C 140.167969 171.667969 133.929688 170.5 127.671875 170.828125 C 121.65625 171.121094 115.972656 173.300781 110.078125 174.304688 C 105.40625 175.214844 100.292969 175.371094 96.269531 178.234375 C 94.125 179.683594 93.214844 182.292969 91.242188 183.914062 C 90.101562 184.480469 88.820312 184.308594 87.605469 184.238281 C 80.570312 183.460938 73.519531 184.914062 66.785156 186.847656 L 55.308594 186.847656 C 53.875 186.53125 52.585938 185.804688 51.429688 184.917969 C 51.710938 184.207031 52.285156 182.769531 52.570312 182.050781 C 51.703125 181.265625 50.757812 180.488281 49.574219 180.246094 C 44.394531 178.867188 38.921875 179.011719 33.820312 177.300781 C 22.984375 173.210938 11.105469 174.441406 0 171.574219 L 0 171.210938 C 7.585938 171.621094 15.703125 171.089844 22.398438 167.148438 C 20.699219 164.78125 17.324219 162.398438 18.410156 159.109375 C 20.894531 156.121094 25.296875 156.597656 28.777344 156.074219 C 31.832031 152.671875 36.582031 152.261719 40.863281 152.339844 C 45.074219 148.722656 50.480469 147.066406 55.800781 145.953125 C 57.9375 144.546875 59.800781 142.253906 62.601562 142.359375 C 65.886719 142.132812 68.113281 145.089844 71.15625 145.796875 C 75.59375 146.953125 80.039062 148.183594 84.53125 149.109375 C 90.207031 149.230469 95.613281 150.976562 101.078125 152.285156 C 101.933594 151.308594 102.777344 150.085938 104.226562 150.070312 C 108.273438 149.773438 112.207031 151.097656 116.199219 151.589844 C 116.054688 150.515625 114.628906 148.804688 116.425781 148.511719 C 124.722656 147.582031 132.867188 150.605469 141.132812 150.886719 C 143.195312 151.042969 145.699219 150.039062 145.648438 147.617188 C 143.714844 145.902344 140.890625 144.949219 140.136719 142.210938 C 147.382812 140.273438 154.828125 142.882812 162.066406 143.683594 C 163.09375 142.625 164.113281 141.566406 165.132812 140.515625 C 165.773438 141.976562 166.453125 143.425781 167.183594 144.847656 C 169.726562 143.125 172.371094 146.242188 174.980469 145.039062 C 177.761719 143.917969 180.765625 144.484375 183.664062 144.53125 C 183.671875 144.101562 183.679688 143.230469 183.6875 142.800781 C 190.609375 143.101562 197.183594 140.671875 203.839844 139.207031 C 206.015625 138.765625 207.933594 137.632812 209.835938 136.550781 C 210.191406 136.847656 210.890625 137.429688 211.246094 137.722656 C 218.886719 131.511719 226.34375 124.839844 231.871094 116.601562 C 232.898438 115.113281 233.613281 113.386719 234.84375 112.046875 Z M 234.84375 112.046875 "/>
</g>
</svg>
