<?xml version="1.0" encoding="UTF-8" ?>
<!DOCTYPE svg PUBLIC "-//W3C//DTD SVG 1.1//EN" "http://www.w3.org/Graphics/SVG/1.1/DTD/svg11.dtd">
<svg width="1360pt" height="2023pt" viewBox="0 0 1360 2023" version="1.1" xmlns="http://www.w3.org/2000/svg">
<path fill="#000000" opacity="1.00" d=" M 579.38 0.00 L 583.68 0.00 C 603.42 15.23 590.95 46.33 588.79 67.80 C 581.81 94.42 575.30 122.20 562.85 146.69 C 555.82 152.02 549.23 176.83 563.62 171.08 C 597.67 126.00 619.42 73.58 657.40 31.38 C 665.13 24.61 672.52 10.49 684.69 17.28 C 690.04 51.82 674.84 84.73 661.67 115.89 C 658.20 125.03 672.54 122.32 673.86 115.83 C 686.76 95.55 705.03 79.81 721.17 62.15 C 728.35 58.16 733.82 49.38 743.17 51.66 C 754.36 68.99 741.26 89.47 738.72 108.48 C 733.37 116.08 729.84 125.34 730.66 134.79 C 738.85 138.30 743.04 131.90 745.97 125.92 C 753.73 122.17 761.27 111.52 770.58 117.39 C 787.23 141.22 769.17 169.66 764.36 194.73 C 783.25 188.31 796.34 212.06 787.41 226.72 C 798.19 233.21 783.06 250.35 778.77 259.18 C 774.95 267.98 787.43 262.19 790.55 267.45 C 804.44 281.70 799.35 303.37 794.40 320.28 C 793.48 326.20 784.06 333.39 789.84 339.06 C 810.09 350.82 804.43 378.57 799.57 397.38 C 794.38 404.01 790.76 412.44 790.67 420.53 C 802.47 422.55 817.50 411.84 826.36 423.87 C 831.75 441.80 827.28 461.94 818.21 478.00 C 814.55 487.13 826.46 490.52 825.13 499.13 C 826.91 520.73 821.64 546.78 800.88 558.10 C 798.86 567.99 815.21 571.85 813.95 582.45 C 815.64 591.55 807.66 599.31 809.33 608.31 C 818.50 618.27 823.87 632.61 818.03 645.59 C 833.60 659.37 837.19 681.72 831.85 700.94 C 835.55 714.96 847.04 730.27 840.04 745.83 C 843.86 756.20 850.10 765.85 850.38 777.35 C 862.42 791.71 832.41 805.80 847.65 817.70 C 847.65 831.38 860.48 845.93 851.66 858.75 C 851.87 866.49 855.36 881.80 866.43 874.74 C 891.08 818.81 909.38 759.98 931.37 703.47 C 934.44 697.05 937.55 689.38 944.53 686.51 C 948.70 673.00 963.80 666.02 977.08 669.29 C 984.16 680.39 1012.87 679.13 1017.70 697.26 C 1025.79 695.59 1030.90 703.18 1038.67 703.20 C 1047.01 710.55 1056.94 698.65 1065.48 705.63 C 1071.10 708.92 1083.17 705.16 1078.78 715.27 C 1084.15 717.04 1092.96 709.40 1094.68 717.36 C 1114.48 732.69 1135.70 747.82 1147.84 770.39 C 1160.01 772.92 1175.34 777.95 1176.53 792.67 C 1184.13 792.15 1182.38 790.20 1189.64 792.54 C 1191.22 784.60 1190.23 797.23 1193.20 799.09 C 1203.26 799.44 1212.74 811.20 1209.02 819.45 C 1218.78 817.79 1218.73 829.06 1223.85 834.13 C 1229.59 840.83 1231.38 849.70 1235.82 857.14 C 1243.56 864.30 1253.73 868.42 1261.36 875.77 C 1270.21 883.80 1249.44 891.75 1259.58 900.61 C 1269.43 897.90 1277.57 894.20 1287.18 900.75 C 1290.34 910.19 1299.86 915.64 1304.02 925.10 C 1277.34 940.18 1245.71 940.24 1216.11 937.13 C 1216.12 938.51 1216.14 941.27 1216.15 942.65 C 1245.47 945.78 1274.62 953.19 1304.28 950.34 C 1312.53 959.29 1308.29 973.25 1312.47 984.41 C 1316.15 992.03 1304.22 992.15 1306.91 999.86 C 1307.47 1004.19 1317.97 994.38 1314.32 1003.84 C 1317.60 1007.95 1331.56 1002.94 1330.49 1011.44 C 1319.17 1020.86 1341.34 1020.34 1338.48 1031.97 C 1335.96 1041.16 1343.58 1045.79 1347.74 1052.28 C 1343.69 1064.08 1347.13 1078.51 1337.58 1088.73 C 1329.92 1094.60 1341.70 1098.30 1339.50 1104.63 C 1338.81 1108.73 1333.27 1117.69 1342.32 1116.08 C 1341.93 1124.29 1341.77 1133.09 1344.41 1140.70 C 1351.15 1146.59 1342.65 1164.72 1356.84 1164.94 C 1354.56 1166.02 1352.71 1169.85 1355.81 1171.24 C 1362.57 1174.19 1352.05 1187.96 1360.00 1189.04 L 1360.00 1193.49 C 1353.61 1203.71 1346.16 1213.05 1353.96 1224.21 C 1361.59 1237.45 1338.94 1241.00 1343.58 1255.26 C 1351.29 1266.81 1317.63 1271.71 1336.51 1277.73 C 1343.47 1286.46 1329.31 1278.56 1327.87 1284.80 C 1323.21 1290.20 1323.11 1297.16 1320.36 1302.68 C 1339.48 1304.39 1349.54 1331.81 1336.37 1344.98 C 1334.50 1348.71 1338.20 1350.90 1339.07 1354.01 C 1338.39 1359.85 1329.96 1359.83 1332.31 1366.75 C 1323.58 1370.93 1314.27 1365.17 1305.20 1366.31 C 1301.99 1375.52 1319.24 1375.47 1314.49 1385.34 C 1308.28 1406.73 1311.55 1432.26 1295.95 1450.37 C 1287.12 1448.46 1285.79 1453.31 1288.06 1459.94 C 1282.07 1453.90 1273.15 1445.10 1264.19 1451.46 C 1264.77 1460.08 1278.23 1463.28 1283.32 1468.92 C 1277.25 1481.82 1264.14 1492.88 1249.08 1490.51 C 1242.22 1507.75 1232.14 1528.21 1216.21 1536.17 C 1211.44 1542.49 1192.60 1541.39 1197.65 1553.05 C 1184.11 1558.23 1173.20 1563.95 1160.49 1570.55 C 1170.75 1582.59 1147.29 1582.55 1145.03 1592.92 C 1142.29 1601.34 1129.19 1596.39 1128.65 1605.78 C 1116.74 1600.31 1109.72 1616.29 1099.14 1613.93 C 1094.53 1602.85 1092.06 1612.38 1090.36 1617.83 C 1072.00 1613.26 1068.21 1635.19 1054.12 1641.86 C 1050.33 1636.50 1044.58 1631.90 1037.51 1633.38 C 1035.19 1640.85 1045.51 1645.30 1043.67 1652.47 C 1039.45 1656.14 1031.56 1651.65 1029.93 1657.83 C 993.23 1650.79 968.46 1619.02 950.83 1588.18 C 933.27 1559.33 913.86 1531.63 895.69 1503.27 C 873.75 1458.41 846.57 1415.69 829.05 1368.78 C 812.65 1366.97 796.81 1374.47 780.50 1374.36 C 776.71 1379.98 784.29 1379.09 783.93 1383.03 C 776.22 1383.75 768.57 1386.20 762.30 1390.86 C 759.35 1397.21 766.04 1400.09 767.82 1404.58 C 759.06 1402.43 740.01 1409.05 750.36 1420.27 C 744.92 1425.94 731.06 1432.55 720.46 1435.65 C 719.94 1443.44 726.08 1449.37 727.58 1456.88 C 715.78 1460.42 705.62 1468.37 693.39 1470.52 C 692.44 1478.07 697.52 1484.85 696.61 1492.49 C 684.78 1496.05 676.49 1506.38 663.49 1507.37 C 650.25 1510.29 668.65 1527.00 659.26 1534.16 C 647.44 1539.40 638.24 1549.37 625.27 1552.25 C 615.86 1568.69 601.19 1588.20 579.33 1587.51 C 574.25 1603.56 586.99 1605.11 598.05 1608.38 C 600.82 1621.15 591.42 1637.88 576.81 1639.17 C 567.17 1643.24 559.53 1634.68 550.25 1635.10 C 550.57 1645.88 556.63 1655.66 556.47 1666.54 C 554.07 1680.56 545.92 1692.56 538.10 1704.07 C 530.96 1709.58 519.40 1715.77 511.92 1707.53 C 500.33 1702.91 506.32 1718.33 507.01 1724.25 C 506.39 1732.76 504.88 1742.22 501.63 1749.74 C 492.75 1748.22 474.00 1735.23 472.51 1747.21 C 481.10 1750.40 489.74 1753.54 497.86 1757.86 C 490.44 1767.47 481.55 1780.10 467.84 1778.33 C 461.91 1776.87 459.60 1767.94 452.50 1770.45 C 452.62 1781.30 454.44 1793.40 448.05 1803.03 C 443.10 1800.43 430.31 1794.19 432.30 1804.45 C 432.26 1810.81 443.06 1807.29 442.83 1813.77 C 430.09 1808.81 417.88 1800.15 404.44 1798.24 C 401.64 1809.57 408.08 1823.15 406.87 1835.46 C 404.32 1837.00 398.55 1836.19 401.50 1841.50 C 401.97 1851.92 397.52 1861.57 395.81 1871.69 C 389.99 1870.84 384.37 1868.24 378.35 1869.08 C 375.80 1876.64 383.68 1878.39 388.68 1880.45 C 389.03 1890.58 376.64 1893.05 369.76 1897.04 C 360.47 1903.00 357.83 1887.76 349.24 1890.52 C 349.81 1902.59 345.90 1913.96 343.97 1925.71 C 332.75 1922.42 323.57 1912.45 311.33 1912.26 C 309.08 1926.15 333.25 1924.33 330.88 1938.50 C 324.98 1944.78 313.68 1953.99 305.20 1946.80 C 292.16 1936.08 276.92 1924.52 259.40 1924.29 C 261.30 1936.98 281.88 1939.01 288.68 1950.79 C 289.59 1962.76 283.13 1973.27 279.35 1984.18 C 271.09 1991.22 257.90 2002.93 248.73 1991.26 C 240.51 1987.01 242.06 1976.50 234.97 1971.82 C 231.47 1964.45 229.64 1950.31 220.29 1950.42 C 218.74 1977.71 211.74 2011.35 183.52 2023.00 L 180.13 2023.00 C 164.89 2014.65 163.96 1996.23 154.57 1983.27 C 149.33 1974.07 155.81 1947.62 139.33 1950.48 C 138.84 1975.34 127.10 2001.14 103.97 2012.30 C 90.67 2017.11 87.88 2000.36 82.54 1992.49 C 78.47 1971.43 73.23 1950.23 72.67 1928.33 C 72.78 1922.61 72.86 1910.53 63.45 1914.34 C 60.39 1925.60 53.58 1936.61 57.24 1948.69 C 43.73 1938.60 32.15 1925.94 20.20 1914.18 C 1.30 1909.64 8.46 1936.96 4.49 1947.01 C 2.42 1941.24 2.18 1935.01 0.00 1929.28 L 0.00 1904.83 C 10.70 1826.67 21.42 1744.68 49.92 1669.04 C 64.47 1640.86 65.57 1607.67 80.60 1579.56 C 83.04 1570.87 89.73 1563.49 89.72 1554.21 C 76.86 1554.25 75.12 1574.83 64.25 1578.41 C 60.18 1572.62 62.95 1564.64 64.16 1558.20 C 72.67 1528.90 89.60 1502.84 107.50 1478.52 C 156.49 1419.08 214.19 1367.54 266.76 1311.39 C 268.25 1303.80 257.97 1303.25 253.40 1300.59 C 232.47 1289.74 209.49 1281.38 192.37 1264.56 C 175.74 1259.15 160.51 1250.72 143.21 1246.83 C 134.78 1245.49 125.28 1238.40 117.43 1244.88 C 82.57 1240.15 56.79 1272.24 36.67 1292.35 C 30.73 1282.12 31.04 1268.11 37.12 1258.10 C 48.77 1245.59 43.73 1225.89 56.74 1214.14 C 62.06 1194.60 43.45 1174.18 54.16 1154.97 C 63.45 1124.62 94.20 1109.71 120.45 1096.45 C 143.47 1083.26 171.02 1088.95 196.19 1085.22 C 217.01 1079.41 236.99 1092.03 258.07 1088.40 C 278.98 1096.96 309.14 1105.06 326.70 1085.67 C 337.28 1071.50 357.28 1059.77 354.34 1039.44 C 351.77 979.50 343.49 920.12 328.70 862.34 C 320.15 838.83 315.91 813.79 310.94 789.11 C 302.20 775.84 307.66 758.39 298.91 744.94 C 290.47 692.85 299.72 633.06 337.67 594.42 C 343.09 563.28 358.49 535.11 367.00 504.96 C 400.51 381.94 464.03 269.96 505.83 149.84 C 522.24 109.59 536.57 68.55 557.39 30.33 C 563.94 20.11 568.42 7.25 579.38 0.00 M 61.20 1869.86 C 61.28 1877.51 54.26 1896.69 65.29 1899.70 C 63.15 1889.87 62.85 1877.70 61.20 1869.86 Z" />
</svg>
