<?xml version="1.0" encoding="UTF-8" standalone="no"?>
<!-- Created with Inkscape (http://www.inkscape.org/) -->

<svg
   xmlns:dc="http://purl.org/dc/elements/1.1/"
   xmlns:cc="http://creativecommons.org/ns#"
   xmlns:rdf="http://www.w3.org/1999/02/22-rdf-syntax-ns#"
   xmlns:svg="http://www.w3.org/2000/svg"
   xmlns="http://www.w3.org/2000/svg"
   xmlns:sodipodi="http://sodipodi.sourceforge.net/DTD/sodipodi-0.dtd"
   xmlns:inkscape="http://www.inkscape.org/namespaces/inkscape"
   width="242.80516mm"
   height="145.11215mm"
   viewBox="0 0 860.33325 514.17691"
   id="svg2"
   version="1.1"
   inkscape:version="0.91 r13725"
   sodipodi:docname="t-rex.svg"
   inkscape:export-filename="/home/algot/Documents/runeman.org/clipart/2018/t-rex.png"
   inkscape:export-xdpi="31.383188"
   inkscape:export-ydpi="31.383188">
  <title
     id="title3407">T. Rex</title>
  <defs
     id="defs4" />
  <sodipodi:namedview
     id="base"
     pagecolor="#ffffff"
     bordercolor="#666666"
     borderopacity="1.0"
     inkscape:pageopacity="0.0"
     inkscape:pageshadow="2"
     inkscape:zoom="1.5886719"
     inkscape:cx="371.27245"
     inkscape:cy="95.687938"
     inkscape:document-units="px"
     inkscape:current-layer="layer1"
     showgrid="false"
     inkscape:window-width="1366"
     inkscape:window-height="712"
     inkscape:window-x="0"
     inkscape:window-y="0"
     inkscape:window-maximized="1"
     fit-margin-top="0"
     fit-margin-left="0"
     fit-margin-right="0"
     fit-margin-bottom="0" />
  <metadata
     id="metadata7">
    <rdf:RDF>
      <cc:Work
         rdf:about="">
        <dc:format>image/svg+xml</dc:format>
        <dc:type
           rdf:resource="http://purl.org/dc/dcmitype/StillImage" />
        <dc:title>T. Rex</dc:title>
        <dc:date>2018-03-17</dc:date>
        <dc:creator>
          <cc:Agent>
            <dc:title>Algot Runeman</dc:title>
          </cc:Agent>
        </dc:creator>
        <dc:rights>
          <cc:Agent>
            <dc:title>Algot Runeman</dc:title>
          </cc:Agent>
        </dc:rights>
        <dc:publisher>
          <cc:Agent>
            <dc:title>runeman.org</dc:title>
          </cc:Agent>
        </dc:publisher>
        <dc:identifier>t-rex.svg</dc:identifier>
        <cc:license
           rdf:resource="http://creativecommons.org/publicdomain/zero/1.0/" />
      </cc:Work>
      <cc:License
         rdf:about="http://creativecommons.org/publicdomain/zero/1.0/">
        <cc:permits
           rdf:resource="http://creativecommons.org/ns#Reproduction" />
        <cc:permits
           rdf:resource="http://creativecommons.org/ns#Distribution" />
        <cc:permits
           rdf:resource="http://creativecommons.org/ns#DerivativeWorks" />
      </cc:License>
    </rdf:RDF>
  </metadata>
  <g
     inkscape:label="Layer 1"
     inkscape:groupmode="layer"
     id="layer1"
     transform="translate(61.877907,-207.23322)">
    <path
       style="fill:#000000;fill-rule:evenodd;stroke:#000000;stroke-width:1px;stroke-linecap:butt;stroke-linejoin:miter;stroke-opacity:1"
       d="m 181.82031,694.47298 c 0,0 -3.93647,-3.12358 -6.29457,-3.77674 -2.83088,-0.78411 -6.4294,-1.71757 -8.81239,0 -1.07653,0.77592 -0.15541,3.03969 -1.25891,3.77674 -4.89786,3.27138 -17.62479,-1.25891 -17.62479,-1.25891 0,0 0.44263,-3.41651 0,-5.03565 -2.82773,-10.34381 -11.03389,-18.3923 -16.36587,-27.69609 -2.14825,-3.74849 -5.03794,-7.19657 -6.29456,-11.33022 -1.46972,-4.83465 -2.37382,-10.17838 -1.25892,-15.10696 1.28626,-5.68613 4.81546,-10.86302 8.8124,-15.10696 3.11201,-3.30433 9.18842,-3.55149 11.33022,-7.55348 1.18806,-2.2199 1.98456,-6.00398 0,-7.55348 -2.72752,-2.12959 -10.07131,2.51783 -10.07131,2.51783 0,0 4.14624,-3.75905 5.03565,-6.29457 0.41671,-1.18795 -0.44,-2.59722 0,-3.77674 2.91125,-7.80425 12.69978,-11.40429 16.36587,-18.88369 1.88353,-3.8427 0.38856,-8.87697 2.51783,-12.58914 2.51418,-4.38323 6.86177,-7.71188 11.33021,-10.0713 9.18012,-4.84728 20.56179,-3.73156 30.21392,-7.55348 19.21335,-7.60785 38.57265,-16.61614 54.13327,-30.21392 1.57994,-1.38064 4.10339,-2.96304 3.77674,-5.03565 -1.35941,-8.62563 -13.5639,-11.25714 -21.40153,-15.10696 -5.12302,-2.51642 -10.80278,-3.75903 -16.36587,-5.03565 -10.75928,-2.46904 -22.38351,-1.19216 -32.73174,-5.03565 -11.13344,-4.13513 -19.17577,-14.50054 -30.21392,-18.8837 -7.95474,-3.15877 -16.6376,-4.47618 -25.17826,-5.03565 -12.59009,-0.82474 -25.15032,2.51782 -37.76739,2.51782 -18.92562,0 -37.73596,-3.14693 -56.6511,-3.77674 -15.9374,-0.53066 -32.4129302,-4.0408 -47.8387,0 -7.45209,1.95208 -15.23856,5.38929 -20.14261,11.33022 -3.37909,4.09354 -5.69634,9.84019 -5.03565,15.10696 0.86932,6.92985 7.25491,11.95288 11.33022,17.62478 4.70363,6.54639 8.51045,14.25062 15.1069498,18.8837 15.96351,11.21203 55.3921802,18.8837 55.3921802,18.8837 l 22.66044,10.07131 -13.84804,-1.25892 c 0,0 -48.8282502,-8.48128 -69.24023,-21.40152 -17.31622,-10.96071 -32.42951,-26.96572 -41.54414,-45.32088 -4.1733,-8.40425 -5.93058,-18.35548 -5.03565,-27.69609 0.77296,-8.06761 4.4868,-15.80675 8.81239,-22.66044 5.22865,-8.28453 12.66148,-15.07659 20.14262,-21.40152 8.08796,-6.83797 16.68019,-13.50479 26.4371698,-17.62478 11.07014,-4.67448 23.6753102,-4.32317 35.2495702,-7.55348 22.24152,-6.20749 43.81075,-14.63692 65.46349,-22.66044 18.19445,-6.74203 35.59637,-15.66773 54.13327,-21.40153 9.04465,-2.79768 19.32455,-1.87299 27.69608,-6.29456 7.08912,-3.74425 10.87015,-12.04733 17.62479,-16.36587 14.90389,-9.52871 49.09761,-20.14262 49.09761,-20.14262 0,0 26.24934,-5.10266 39.02631,-2.51782 7.35765,1.48849 12.66812,9.37662 20.14261,10.0713 6.0838,0.56543 11.75641,-3.33434 17.62479,-5.03565 21.42576,-6.21157 42.01382,-16.5995 64.20457,-18.8837 15.49567,-1.59505 31.13681,1.73363 46.57979,3.77674 16.07446,2.12665 31.69138,7.33755 47.8387,8.8124 7.52217,0.68705 15.46728,2.30515 22.66048,0 10.3129,-3.30494 18.9387,-11.07001 26.4371,-18.8837 9.026,-9.40552 12.1714,-23.52648 21.4016,-32.73175 7.0876,-7.06853 16.6328,-11.15294 25.1782,-16.36587 5.7765,-3.52381 11.085,-8.33457 17.6248,-10.0713 11.7618,-3.12352 24.6979,2.93348 36.5085,0 7.8339,-1.94575 13.5677,-9.38447 21.4015,-11.33022 3.2581,-0.80924 6.9698,-1.28471 10.0713,0 4.9346,2.04396 6.3957,9.28626 11.3302,11.33022 8.917,3.69353 19.445,1.64727 28.9551,0 6.1468,-1.06472 11.3984,-5.90693 17.6247,-6.29457 3.8614,-0.2404 7.4941,2.01569 11.3303,2.51783 9.9947,1.30828 20.7819,-2.29701 30.2139,1.25891 13.1233,4.94756 24.7368,14.91414 32.7317,26.43718 3.0259,4.36114 4.5126,9.82475 5.0357,15.10696 1.3335,13.46705 0.2971,27.84732 -5.0357,40.28522 -2.3502,5.48159 -6.2442,10.73286 -11.3302,13.84804 -8.4227,5.15896 -19.5605,3.24505 -28.955,6.29457 -17.8722,5.80142 -51.6154,22.66044 -51.6154,22.66044 l -41.5442,13.84804 -37.7674,0 1.2589,11.33022 -13.848,16.36587 c 0,0 -42.06719,18.23256 -62.9457,27.69609 -6.32667,2.86767 -14.91209,3.11358 -18.8837,8.8124 -2.88918,4.14566 0.86718,10.52289 -1.2589,15.10695 -2.24726,4.84534 -8.62158,6.72687 -11.3302,11.33022 -1.54927,2.63303 -3.03759,5.80193 -2.5178,8.8124 0.61419,3.55721 3.55012,6.46732 6.2945,8.81239 7.13372,6.09575 15.81851,11.92396 25.1783,12.58913 3.97101,0.28221 7.57082,-2.46692 11.3302,-3.77674 4.63829,-1.61604 8.95888,-5.5056 13.8481,-5.03565 4.87131,0.46823 12.5891,7.55348 12.5891,7.55348 0,0 -12.58124,-1.99961 -13.848,2.51782 -1.36435,4.86543 9.26017,5.46167 11.3302,10.07131 1.71907,3.8281 0,12.58913 0,12.58913 0,0 -4.98552,-2.62355 -7.5535,-3.77674 -2.06151,-0.92575 -4.89821,-0.74105 -6.2946,-2.51782 -1.83355,-2.333 0.98275,-6.86823 -1.2589,-8.8124 -5.38928,-4.6741 -14.28695,0.52414 -21.4015,0 -11.42294,-0.84155 -24.05972,0.67114 -33.9907,-5.03565 -6.98917,-4.0163 -7.6305,-15.86995 -15.1069,-18.8837 -9.02758,-3.63903 -22.53296,-3.5374 -28.95504,3.77674 -2.215,2.52268 -2.93627,8.44389 0,10.07131 3.46258,1.91913 6.26586,-5.20318 10.07131,-6.29457 4.43714,-1.27256 9.58341,-1.76647 13.84805,0 3.2897,1.36264 7.55348,7.55348 7.55348,7.55348 l -12.58914,0 c -2.51783,0 -6.63317,-2.3436 -7.55348,0 -2.93042,7.46242 12.42813,10.26099 17.62482,16.36587 3.92294,4.60852 10.0713,15.10696 10.0713,15.10696 0,0 -10.25355,-7.79839 -16.3659,-8.81239 -2.51814,-0.41774 -7.55348,1.25891 -7.55348,1.25891 0,0 -9.67606,-8.91861 -15.10696,-12.58913 -5.1334,-3.46945 -11.7836,-4.64206 -16.36587,-8.81239 -2.23797,-2.03678 -2.11685,-6.75499 -5.03565,-7.55348 -12.12944,-3.31824 -22.28858,11.76203 -33.99066,16.36587 -11.85742,4.66496 -24.02115,8.79509 -36.50848,11.33022 -8.26599,1.67813 -17.9666,-1.8565 -25.17826,2.51782 -12.43932,7.54523 -20.25867,22.42777 -23.91935,36.50849 -1.48198,5.7004 2.82828,11.94781 1.25891,17.62478 -1.36485,4.93715 -4.74833,9.47117 -8.81239,12.58913 -7.79395,5.97954 -20.04221,3.9135 -27.69609,10.07131 -11.61045,9.341 -22.19964,22.96539 -23.91935,37.7674 -1.33244,11.46861 6.10753,22.43474 11.33021,32.73174 3.00134,5.91742 6.5706,11.7431 11.33022,16.36587 7.18056,6.9741 15.72698,13.06864 25.17827,16.36587 8.35824,2.9159 18.71626,-1.81232 26.43717,2.51783 1.83003,1.02634 2.0183,3.89098 3.77674,5.03565 4.69212,3.05436 11.69635,0.68796 16.36588,3.77674 4.76046,3.14893 10.0713,13.84805 10.0713,13.84805 0,0 -8.96256,-4.52851 -13.84804,-5.03566 -2.95143,-0.30638 -7.37593,-1.33749 -8.8124,1.25892 -2.00077,3.61638 5.03566,11.33022 5.03566,11.33022 0,0 -5.12269,2.03789 -7.55348,1.25891 -3.39088,-1.08666 -4.08799,-8.37157 -7.55348,-7.55348 -2.58303,0.60977 -2.51783,7.55348 -2.51783,7.55348 0,0 -12.63207,0.73398 -18.8837,0 -8.99694,-1.0563 -17.44023,-5.23827 -26.43717,-6.29457 -2.08388,-0.24466 -4.53525,-1.14333 -6.29457,0 -3.46545,2.2521 -5.03565,11.33022 -5.03565,11.33022 0,0 -7.65451,0.86772 -11.33022,0 -8.21913,-1.94027 -17.53435,-4.61889 -22.66044,-11.33022 -2.59762,-3.40093 -3.01954,-8.33916 -2.51783,-12.58913 0.70439,-5.96687 7.10743,-10.37415 7.55348,-16.36587 0.77883,-10.46199 -5.45773,-20.27379 -8.81239,-30.21392 -3.738,-11.076 -10.45508,-21.23843 -12.58913,-32.73174 -0.9193,-4.95103 -1.92706,-10.45462 0,-15.10696 2.95238,-7.12768 16.36587,-16.36587 16.36587,-16.36587 0,0 -20.22833,-5.59445 -30.21392,-3.77674 -8.86434,1.6136 -18.46526,5.41745 -23.91935,12.58913 -5.97898,7.86187 -5.23943,19.13443 -6.29456,28.95501 -1.03105,9.59644 3.19477,19.84742 0,28.955 -0.88941,2.53552 -5.09489,3.60822 -5.03566,6.29456 0.0983,4.45973 4.95164,7.83672 8.8124,10.07131 3.70382,2.14375 9.49195,-0.43538 12.58913,2.51783 1.2522,1.19399 0.40644,3.53002 1.25891,5.03565 2.92396,5.16427 12.58913,12.58913 12.58913,12.58913 0,0 -5.85257,-1.04856 -8.81239,-1.25891 -2.51149,-0.17849 -5.09272,-0.53302 -7.55348,0 -4.95558,1.07342 -13.84804,6.29456 -13.84804,6.29456 z"
       id="path3377"
       inkscape:connector-curvature="0"
       sodipodi:nodetypes="cssscssssssscsssssssssssssssssssscccssssssssssscsssssssssssssssssssssssscccccssssssssscsscsssssssssscssscscssssssssssssssssscsscsscssscssssssscsssssssscssc" />
  </g>
</svg>
