<?xml version="1.0" encoding="iso-8859-1"?>
<!-- Created with Inkscape (http://www.inkscape.org/) -->

<svg width="1024" height="1024" xmlns="http://www.w3.org/2000/svg" xmlns:xlink="http://www.w3.org/1999/xlink" >
    <rect x="711" y="370" width="143" height="151" opacity="0.89" fill="#F0B27A20"></rect>
    <rect x="774" y="875" width="135" height="192" opacity="0.88" fill="#73C6B620"></rect>
    <rect x="536" y="920" width="120" height="77" opacity="0.89" fill="#73C6B620"></rect>
    <rect x="144" y="656" width="148" height="86" opacity="0.83" fill="#A3E4D720"></rect>
    <rect x="86" y="337" width="33" height="36" opacity="0.83" fill="#85C1E920"></rect>
    <rect x="105" y="159" width="153" height="144" opacity="0.85" fill="#A3E4D720"></rect>
    <rect x="83" y="646" width="204" height="217" opacity="0.81" fill="#F0B27A20"></rect>
    <rect x="884" y="667" width="30" height="139" opacity="0.82" fill="#F0B27A20"></rect>
    <rect x="268" y="633" width="212" height="89" opacity="0.85" fill="#F7DC6F20"></rect>
    <rect x="415" y="599" width="209" height="133" opacity="0.82" fill="#F0B27A20"></rect>
    <rect x="465" y="720" width="91" height="162" opacity="0.81" fill="#85C1E920"></rect>
    <rect x="-10" y="295" width="195" height="22" opacity="0.80" fill="#A3E4D720"></rect>
    <rect x="407" y="-15" width="98" height="74" opacity="0.89" fill="#F0B27A20"></rect>
    <rect x="655" y="345" width="207" height="198" opacity="0.89" fill="#F0B27A70"></rect>
    <rect x="565" y="934" width="116" height="64" opacity="0.82" fill="#A3E4D720"></rect>
    <rect x="893" y="109" width="103" height="114" opacity="0.82" fill="#A3E4D770"></rect>
    <rect x="45" y="405" width="157" height="131" opacity="0.85" fill="#73C6B620"></rect>
    <rect x="204" y="12" width="120" height="120" opacity="0.82" fill="#A3E4D770"></rect>
    <rect x="630" y="624" width="179" height="202" opacity="0.87" fill="#F7DC6F20"></rect>
    <rect x="52" y="692" width="128" height="42" opacity="0.86" fill="#73C6B620"></rect>
    <rect x="157" y="524" width="132" height="62" opacity="0.85" fill="#85C1E920"></rect>
    <rect x="141" y="-35" width="155" height="66" opacity="0.83" fill="#F0B27A20"></rect>
    <rect x="198" y="907" width="103" height="56" opacity="0.89" fill="#73C6B620"></rect>
    <rect x="872" y="166" width="154" height="206" opacity="0.82" fill="#F0B27A20"></rect>
    <rect x="-12" y="174" width="45" height="193" opacity="0.86" fill="#73C6B670"></rect>
    <rect x="354" y="249" width="198" height="55" opacity="0.86" fill="#F7DC6F20"></rect>
    <rect x="379" y="397" width="83" height="33" opacity="0.88" fill="#85C1E920"></rect>
    <rect x="764" y="998" width="151" height="171" opacity="0.83" fill="#F7DC6F70"></rect>
    <rect x="785" y="222" width="87" height="20" opacity="0.89" fill="#F0B27A20"></rect>
    <rect x="172" y="265" width="51" height="129" opacity="0.87" fill="#73C6B6AA"></rect>
    <rect x="16" y="944" width="175" height="167" opacity="0.89" fill="#F7DC6F20"></rect>
    <rect x="808" y="661" width="40" height="212" opacity="0.88" fill="#73C6B620"></rect>
    <rect x="264" y="914" width="67" height="87" opacity="0.83" fill="#A3E4D720"></rect>
    <rect x="549" y="731" width="167" height="61" opacity="0.80" fill="#F7DC6F20"></rect>
    <rect x="-24" y="492" width="101" height="80" opacity="0.87" fill="#73C6B620"></rect>
    <rect x="144" y="522" width="145" height="75" opacity="0.88" fill="#85C1E9AA"></rect>
    <rect x="373" y="772" width="76" height="40" opacity="0.80" fill="#F0B27A20"></rect>
    <rect x="506" y="130" width="84" height="108" opacity="0.88" fill="#F0B27A70"></rect>
    <rect x="761" y="620" width="119" height="67" opacity="0.85" fill="#F0B27A20"></rect>
    <rect x="1008" y="491" width="199" height="187" opacity="0.81" fill="#F0B27A20"></rect>
    <rect x="1021" y="723" width="177" height="156" opacity="0.81" fill="#F0B27A20"></rect>
    <rect x="453" y="464" width="204" height="116" opacity="0.87" fill="#85C1E920"></rect>
    <rect x="87" y="1010" width="158" height="205" opacity="0.84" fill="#F0B27A20"></rect>
    <rect x="142" y="199" width="212" height="214" opacity="0.86" fill="#A3E4D720"></rect>
    <rect x="27" y="508" width="111" height="40" opacity="0.85" fill="#73C6B620"></rect>
    <rect x="116" y="930" width="45" height="105" opacity="0.82" fill="#73C6B620"></rect>
    <rect x="311" y="691" width="89" height="154" opacity="0.81" fill="#F7DC6F20"></rect>
    <rect x="885" y="504" width="187" height="215" opacity="0.80" fill="#F0B27A20"></rect>
    <rect x="960" y="946" width="21" height="41" opacity="0.87" fill="#F7DC6F20"></rect>
    <rect x="512" y="912" width="151" height="34" opacity="0.88" fill="#A3E4D720"></rect>
    <rect x="131" y="512" width="112" height="34" opacity="0.86" fill="#73C6B620"></rect>
    <rect x="-34" y="652" width="144" height="24" opacity="0.87" fill="#A3E4D720"></rect>
    <rect x="936" y="69" width="172" height="98" opacity="0.83" fill="#F7DC6F20"></rect>
    <rect x="547" y="44" width="58" height="137" opacity="0.87" fill="#A3E4D7AA"></rect>
    <rect x="368" y="571" width="180" height="30" opacity="0.89" fill="#A3E4D720"></rect>
    <rect x="855" y="55" width="74" height="61" opacity="0.83" fill="#A3E4D770"></rect>
    <rect x="971" y="-50" width="117" height="122" opacity="0.89" fill="#73C6B620"></rect>
    <rect x="760" y="54" width="187" height="67" opacity="0.82" fill="#F7DC6F70"></rect>
    <rect x="653" y="746" width="148" height="67" opacity="0.84" fill="#F0B27A70"></rect>
    <rect x="810" y="328" width="194" height="186" opacity="0.86" fill="#73C6B620"></rect>
    <rect x="370" y="460" width="177" height="162" opacity="0.80" fill="#F7DC6F20"></rect>
    <rect x="945" y="162" width="82" height="99" opacity="0.82" fill="#F7DC6F20"></rect>
    <rect x="370" y="421" width="152" height="185" opacity="0.88" fill="#A3E4D720"></rect>
    <rect x="784" y="650" width="182" height="113" opacity="0.84" fill="#F7DC6F20"></rect>
    <rect x="703" y="185" width="188" height="112" opacity="0.88" fill="#73C6B620"></rect>
    <rect x="506" y="618" width="121" height="93" opacity="0.84" fill="#85C1E920"></rect>
    <rect x="127" y="66" width="116" height="188" opacity="0.89" fill="#73C6B620"></rect>
    <rect x="103" y="672" width="180" height="159" opacity="0.85" fill="#73C6B620"></rect>
    <rect x="-33" y="728" width="132" height="103" opacity="0.80" fill="#73C6B620"></rect>
    <rect x="-3" y="198" width="143" height="52" opacity="0.86" fill="#F0B27A20"></rect>
    <rect x="317" y="378" width="208" height="179" opacity="0.84" fill="#F7DC6F70"></rect>
    <rect x="637" y="140" width="118" height="72" opacity="0.82" fill="#85C1E920"></rect>
    <rect x="596" y="519" width="109" height="101" opacity="0.85" fill="#85C1E920"></rect>
    <rect x="37" y="393" width="137" height="108" opacity="0.84" fill="#73C6B670"></rect>
    <rect x="264" y="282" width="138" height="215" opacity="0.88" fill="#A3E4D720"></rect>
    <rect x="599" y="191" width="20" height="109" opacity="0.89" fill="#F0B27A20"></rect>
    <rect x="497" y="730" width="172" height="133" opacity="0.86" fill="#85C1E920"></rect>
    <rect x="438" y="362" width="88" height="60" opacity="0.81" fill="#85C1E920"></rect>
    <rect x="849" y="314" width="186" height="169" opacity="0.88" fill="#73C6B670"></rect>
    <rect x="1003" y="87" width="23" height="216" opacity="0.82" fill="#F7DC6F20"></rect>
</svg>