<?xml version="1.0" standalone="no"?>
<!DOCTYPE svg PUBLIC "-//W3C//DTD SVG 20010904//EN"
 "http://www.w3.org/TR/2001/REC-SVG-20010904/DTD/svg10.dtd">
<svg version="1.0" xmlns="http://www.w3.org/2000/svg"
 width="776.000000pt" height="1280.000000pt" viewBox="0 0 776.000000 1280.000000"
 preserveAspectRatio="xMidYMid meet">
<metadata>
Created by potrace 1.15, written by Peter Selinger 2001-2017
</metadata>
<g transform="translate(0.000000,1280.000000) scale(0.100000,-0.100000)"
fill="white" stroke="none">
<path d="M1290 12790 c-450 -53 -791 -326 -999 -798 -170 -386 -253 -883 -287
-1712 -27 -668 275 -2132 610 -2955 77 -189 174 -379 254 -500 67 -101 180
-225 205 -225 8 0 248 60 533 134 285 73 690 175 899 226 209 50 385 93 392
95 8 3 11 77 12 267 3 609 51 897 216 1284 131 308 186 522 205 806 43 651
-211 1766 -551 2418 -297 567 -707 917 -1124 959 -120 12 -266 12 -365 1z"/>
<path d="M2935 6334 c-189 -65 -427 -140 -890 -279 -225 -68 -502 -153 -615
-188 l-205 -64 3 -59 c5 -88 30 -281 57 -442 120 -690 393 -1230 769 -1514 94
-71 247 -147 361 -180 115 -32 335 -33 448 0 325 93 573 350 691 715 175 540
23 1253 -414 1955 -36 56 -67 102 -70 101 -3 0 -63 -21 -135 -45z"/>
</g>
</svg>
