<?xml version="1.0" encoding="iso-8859-1"?>
<!-- Uploaded to: SVG Repo, www.svgrepo.com, Generator: SVG Repo Mixer Tools -->
<!DOCTYPE svg PUBLIC "-//W3C//DTD SVG 1.1//EN" "http://www.w3.org/Graphics/SVG/1.1/DTD/svg11.dtd">
<svg fill="currentColor" version="1.1" id="Capa_1" xmlns="http://www.w3.org/2000/svg" xmlns:xlink="http://www.w3.org/1999/xlink" 
	 width="800px" height="800px" viewBox="0 0 194.996 194.996"
	 xml:space="preserve">
<g>
	<path d="M194.594,94.215c-2.506-22.259-16.71-40.936-34.44-53.712c-15.69-11.306-35.216-15.794-54.155-17.732
		c-19.796-2.026-41.161-0.441-59.133,8.685c-7.703,3.911-14.228,9.919-18.677,17.31c-2.692,4.472-8.595,17.543-3.866,22.3
		c4.344,9.099,17.821,14.796,25.234,20.608c4.78,3.746,10.212,8.85,1.712,11.723c-6.735,2.277-15.76-0.865-22.556-1.702
		c-11.972-1.473-26.795-0.21-28.555,14.705c-1.783,15.099,12.021,25.996,23.287,33.364c33.657,22.011,78.074,29.229,116.686,18.029
		C172.8,158.315,198.554,129.385,194.594,94.215z M56.029,55.385c10.802-7.107,22.044-7.682,33.811-1.089
		c10.362,5.807,12.507,20.985-0.37,24.763c-8.937,2.621-19.646-1.13-27.188-5.856C54.223,68.153,52.159,62.111,56.029,55.385z
		 M62.825,135.737c-5.721,6.411-14.008,3.099-19.201-2.049c-3.975-3.94-6.183-9.271-2.558-12.392c1.093,0.432,2.565,0.2,3.622-0.515
		c2.788-1.889,7.048-1.294,10.107-0.632C62.849,121.893,69.589,128.159,62.825,135.737z M108.686,143.176
		c-0.687,2.05-4.812,3.153-6.695,3.68c-7.579,2.114-16.493,1.859-24.029-0.445c-0.549-1.012-0.907-2.133-0.89-3.498
		c0.042-3.266,3.186-6.143,5.617-7.86c6.853-4.845,15.065-4.188,21.436,0.922C106.146,137.593,109.578,140.503,108.686,143.176z
		 M132.63,144.155c-3.607-1.608-6.292-4.251-7.307-7.243c0.979-0.081,1.982-0.734,2.283-1.671c0.864-2.687,0.871-5.458,3.062-7.479
		c1.728-1.597,4.552-1.664,6.734-1.526c5.001,0.315,11.093,3.941,11.227,9.428C148.836,144.185,139.099,147.041,132.63,144.155z
		 M168.046,120.45c-4.882,1.671-10.348-1.416-13.69-4.765c-0.096-0.096-0.165-0.195-0.256-0.291c0.159-0.904-0.115-1.919-0.97-2.508
		c-0.361-0.248-0.729-0.478-1.091-0.722c-0.7-1.991-0.47-4.005,0.428-5.903c0.511-0.227,0.979-0.63,1.342-1.254
		C162.506,89.997,184.273,114.895,168.046,120.45z M171.678,88.359c-4.351,3.012-11.26-0.586-14.688-3.471
		c-1.631-1.373-3.442-3.212-3.944-5.39c1.028-0.143,2-0.767,2.281-1.879c0.413-1.627,0.657-3.43,1.302-4.972
		c0.031-0.033,0.065-0.066,0.098-0.099c0.259-0.275,0.376-0.575,0.393-0.867c0.548-0.898,1.305-1.654,2.46-2.125
		c3.031-1.234,6.492-0.117,9.179,1.409C174.139,74.021,177.842,84.093,171.678,88.359z"/>
</g>
</svg>